<?xml version="1.0" encoding="UTF-8" standalone="no"?>
<!DOCTYPE svg PUBLIC "-//W3C//DTD SVG 1.1//EN"
 "http://www.w3.org/Graphics/SVG/1.1/DTD/svg11.dtd">
<!-- Generated by graphviz version 2.43.0 (0)
 -->
<!-- Title: inheritance502f648504 Pages: 1 -->
<svg width="484pt" height="101pt"
 viewBox="0.00 0.00 484.00 101.00" xmlns="http://www.w3.org/2000/svg" xmlns:xlink="http://www.w3.org/1999/xlink">
<g id="graph0" class="graph" transform="scale(1 1) rotate(0) translate(4 97)">
<title>inheritance502f648504</title>
<!-- BaseExpression -->
<g id="node1" class="node">
<title>BaseExpression</title>
<g id="a_node1"><a xlink:title="A ``BaseExpression`` is a base&#45;class for all expressions.">
<polygon fill="white" stroke="#1e90ff" points="311,-19 217,-19 217,0 311,0 311,-19"/>
<text text-anchor="middle" x="264" y="-7" font-family="Vera Sans, DejaVu Sans, Liberation Sans, Arial, Helvetica, sans" font-size="10.00">BaseExpression</text>
</a>
</g>
</g>
<!-- QualifiedExpression -->
<g id="node7" class="node">
<title>QualifiedExpression</title>
<g id="a_node7"><a xlink:href="../pyGHDL/pyGHDL.dom.Expression.html#pyGHDL.dom.Expression.QualifiedExpression" xlink:title="QualifiedExpression" target="_top">
<polygon fill="white" stroke="#1e90ff" points="476,-56 363,-56 363,-37 476,-37 476,-56"/>
<text text-anchor="middle" x="419.5" y="-44" font-family="Vera Sans, DejaVu Sans, Liberation Sans, Arial, Helvetica, sans" font-size="10.00">QualifiedExpression</text>
</a>
</g>
</g>
<!-- BaseExpression&#45;&gt;QualifiedExpression -->
<g id="edge6" class="edge">
<title>BaseExpression&#45;&gt;QualifiedExpression</title>
<path fill="none" stroke="black" stroke-width="0.5" d="M304.53,-19.03C325.75,-24.14 351.99,-30.47 373.94,-35.76"/>
<polygon fill="black" stroke="black" stroke-width="0.5" points="373.57,-37.47 378.84,-36.94 374.39,-34.07 373.57,-37.47"/>
</g>
<!-- ModelEntity -->
<g id="node2" class="node">
<title>ModelEntity</title>
<g id="a_node2"><a xlink:title="``ModelEntity`` is the base&#45;class for all classes in the VHDL language model, except for mixin classes (see multiple">
<polygon fill="white" stroke="#1e90ff" points="165,-19 90,-19 90,0 165,0 165,-19"/>
<text text-anchor="middle" x="127.5" y="-7" font-family="Vera Sans, DejaVu Sans, Liberation Sans, Arial, Helvetica, sans" font-size="10.00">ModelEntity</text>
</a>
</g>
</g>
<!-- ModelEntity&#45;&gt;BaseExpression -->
<g id="edge1" class="edge">
<title>ModelEntity&#45;&gt;BaseExpression</title>
<path fill="none" stroke="black" stroke-width="0.5" d="M165.25,-9.5C179.51,-9.5 196.08,-9.5 211.49,-9.5"/>
<polygon fill="black" stroke="black" stroke-width="0.5" points="211.67,-11.25 216.67,-9.5 211.67,-7.75 211.67,-11.25"/>
</g>
<!-- DOMMixin -->
<g id="node3" class="node">
<title>DOMMixin</title>
<g id="a_node3"><a xlink:href="../pyGHDL.dom.html#pyGHDL.dom.DOMMixin" xlink:title="DOMMixin" target="_top">
<polygon fill="white" stroke="#1e90ff" points="298,-93 230,-93 230,-74 298,-74 298,-93"/>
<text text-anchor="middle" x="264" y="-81" font-family="Vera Sans, DejaVu Sans, Liberation Sans, Arial, Helvetica, sans" font-size="10.00">DOMMixin</text>
</a>
</g>
</g>
<!-- DOMMixin&#45;&gt;QualifiedExpression -->
<g id="edge5" class="edge">
<title>DOMMixin&#45;&gt;QualifiedExpression</title>
<path fill="none" stroke="black" stroke-width="0.5" d="M298.31,-75.47C320.45,-70.13 349.79,-63.06 373.94,-57.24"/>
<polygon fill="black" stroke="black" stroke-width="0.5" points="374.56,-58.89 379.01,-56.02 373.73,-55.49 374.56,-58.89"/>
</g>
<!-- Generic -->
<g id="node4" class="node">
<title>Generic</title>
<g id="a_node4"><a xlink:title="Abstract base class for generic types.">
<polygon fill="white" stroke="#1e90ff" points="54,-56 0,-56 0,-37 54,-37 54,-56"/>
<text text-anchor="middle" x="27" y="-44" font-family="Vera Sans, DejaVu Sans, Liberation Sans, Arial, Helvetica, sans" font-size="10.00">Generic</text>
</a>
</g>
</g>
<!-- Protocol -->
<g id="node6" class="node">
<title>Protocol</title>
<g id="a_node6"><a xlink:title="Base class for protocol classes.">
<polygon fill="white" stroke="#1e90ff" points="155.5,-56 99.5,-56 99.5,-37 155.5,-37 155.5,-56"/>
<text text-anchor="middle" x="127.5" y="-44" font-family="Vera Sans, DejaVu Sans, Liberation Sans, Arial, Helvetica, sans" font-size="10.00">Protocol</text>
</a>
</g>
</g>
<!-- Generic&#45;&gt;Protocol -->
<g id="edge3" class="edge">
<title>Generic&#45;&gt;Protocol</title>
<path fill="none" stroke="black" stroke-width="0.5" d="M54.14,-46.5C66.41,-46.5 81.17,-46.5 94.14,-46.5"/>
<polygon fill="black" stroke="black" stroke-width="0.5" points="94.21,-48.25 99.21,-46.5 94.21,-44.75 94.21,-48.25"/>
</g>
<!-- ParenthesisExpression -->
<g id="node5" class="node">
<title>ParenthesisExpression</title>
<polygon fill="white" stroke="#1e90ff" points="327,-56 201,-56 201,-37 327,-37 327,-56"/>
<text text-anchor="middle" x="264" y="-44" font-family="Vera Sans, DejaVu Sans, Liberation Sans, Arial, Helvetica, sans" font-size="10.00">ParenthesisExpression</text>
</g>
<!-- ParenthesisExpression&#45;&gt;QualifiedExpression -->
<g id="edge7" class="edge">
<title>ParenthesisExpression&#45;&gt;QualifiedExpression</title>
<path fill="none" stroke="black" stroke-width="0.5" d="M327.43,-46.5C337.33,-46.5 347.55,-46.5 357.42,-46.5"/>
<polygon fill="black" stroke="black" stroke-width="0.5" points="357.54,-48.25 362.54,-46.5 357.54,-44.75 357.54,-48.25"/>
</g>
<!-- Protocol&#45;&gt;ParenthesisExpression -->
<g id="edge2" class="edge">
<title>Protocol&#45;&gt;ParenthesisExpression</title>
<path fill="none" stroke="black" stroke-width="0.5" d="M155.72,-46.5C167.34,-46.5 181.47,-46.5 195.61,-46.5"/>
<polygon fill="black" stroke="black" stroke-width="0.5" points="195.81,-48.25 200.81,-46.5 195.81,-44.75 195.81,-48.25"/>
</g>
<!-- QualifiedExpression&#45;&gt;QualifiedExpression -->
<g id="edge4" class="edge">
<title>QualifiedExpression&#45;&gt;QualifiedExpression</title>
<path fill="none" stroke="black" stroke-width="0.5" d="M395.76,-56.08C384.22,-64.73 392.13,-74 419.5,-74 443.02,-74 452.17,-67.16 446.95,-59.74"/>
<polygon fill="black" stroke="black" stroke-width="0.5" points="448.03,-58.34 443.24,-56.08 445.57,-60.84 448.03,-58.34"/>
</g>
</g>
</svg>
