<?xml version="1.0" encoding="UTF-8" standalone="no"?>
<!DOCTYPE svg PUBLIC "-//W3C//DTD SVG 1.1//EN"
 "http://www.w3.org/Graphics/SVG/1.1/DTD/svg11.dtd">
<!-- Generated by graphviz version 2.43.0 (0)
 -->
<!-- Title: inheritance3976506a58 Pages: 1 -->
<svg width="465pt" height="64pt"
 viewBox="0.00 0.00 465.00 64.00" xmlns="http://www.w3.org/2000/svg" xmlns:xlink="http://www.w3.org/1999/xlink">
<g id="graph0" class="graph" transform="scale(1 1) rotate(0) translate(4 60)">
<title>inheritance3976506a58</title>
<!-- DOMMixin -->
<g id="node1" class="node">
<title>DOMMixin</title>
<g id="a_node1"><a xlink:href="../pyGHDL.dom.html#pyGHDL.dom.DOMMixin" xlink:title="DOMMixin" target="_top">
<polygon fill="white" stroke="#1e90ff" points="281.5,-56 213.5,-56 213.5,-37 281.5,-37 281.5,-56"/>
<text text-anchor="middle" x="247.5" y="-44" font-family="Vera Sans, DejaVu Sans, Liberation Sans, Arial, Helvetica, sans" font-size="10.00">DOMMixin</text>
</a>
</g>
</g>
<!-- SimpleSubtypeSymbol -->
<g id="node3" class="node">
<title>SimpleSubtypeSymbol</title>
<g id="a_node3"><a xlink:href="../pyGHDL/pyGHDL.dom.Symbol.html#pyGHDL.dom.Symbol.SimpleSubtypeSymbol" xlink:title="SimpleSubtypeSymbol" target="_top">
<polygon fill="white" stroke="#1e90ff" points="457,-37 330,-37 330,-18 457,-18 457,-37"/>
<text text-anchor="middle" x="393.5" y="-25" font-family="Vera Sans, DejaVu Sans, Liberation Sans, Arial, Helvetica, sans" font-size="10.00">SimpleSubtypeSymbol</text>
</a>
</g>
</g>
<!-- DOMMixin&#45;&gt;SimpleSubtypeSymbol -->
<g id="edge2" class="edge">
<title>DOMMixin&#45;&gt;SimpleSubtypeSymbol</title>
<path fill="none" stroke="black" stroke-width="0.5" d="M281.54,-42.14C294.44,-40.44 309.74,-38.42 324.78,-36.43"/>
<polygon fill="black" stroke="black" stroke-width="0.5" points="325.15,-38.15 329.87,-35.76 324.69,-34.68 325.15,-38.15"/>
</g>
<!-- ModelEntity -->
<g id="node2" class="node">
<title>ModelEntity</title>
<g id="a_node2"><a xlink:title="``ModelEntity`` is the base&#45;class for all classes in the VHDL language model, except for mixin classes (see multiple">
<polygon fill="white" stroke="#1e90ff" points="75,-19 0,-19 0,0 75,0 75,-19"/>
<text text-anchor="middle" x="37.5" y="-7" font-family="Vera Sans, DejaVu Sans, Liberation Sans, Arial, Helvetica, sans" font-size="10.00">ModelEntity</text>
</a>
</g>
</g>
<!-- Symbol -->
<g id="node5" class="node">
<title>Symbol</title>
<polygon fill="white" stroke="#1e90ff" points="165,-19 111,-19 111,0 165,0 165,-19"/>
<text text-anchor="middle" x="138" y="-7" font-family="Vera Sans, DejaVu Sans, Liberation Sans, Arial, Helvetica, sans" font-size="10.00">Symbol</text>
</g>
<!-- ModelEntity&#45;&gt;Symbol -->
<g id="edge5" class="edge">
<title>ModelEntity&#45;&gt;Symbol</title>
<path fill="none" stroke="black" stroke-width="0.5" d="M75.18,-9.5C85.15,-9.5 95.85,-9.5 105.51,-9.5"/>
<polygon fill="black" stroke="black" stroke-width="0.5" points="105.75,-11.25 110.75,-9.5 105.75,-7.75 105.75,-11.25"/>
</g>
<!-- SimpleSubtypeSymbol&#45;&gt;SimpleSubtypeSymbol -->
<g id="edge1" class="edge">
<title>SimpleSubtypeSymbol&#45;&gt;SimpleSubtypeSymbol</title>
<path fill="none" stroke="black" stroke-width="0.5" d="M371,-37.08C360.05,-45.73 367.55,-55 393.5,-55 415.8,-55 424.48,-48.16 419.53,-40.74"/>
<polygon fill="black" stroke="black" stroke-width="0.5" points="420.73,-39.47 416,-37.08 418.21,-41.9 420.73,-39.47"/>
</g>
<!-- SubtypeSymbol -->
<g id="node4" class="node">
<title>SubtypeSymbol</title>
<polygon fill="white" stroke="#1e90ff" points="294,-19 201,-19 201,0 294,0 294,-19"/>
<text text-anchor="middle" x="247.5" y="-7" font-family="Vera Sans, DejaVu Sans, Liberation Sans, Arial, Helvetica, sans" font-size="10.00">SubtypeSymbol</text>
</g>
<!-- SubtypeSymbol&#45;&gt;SimpleSubtypeSymbol -->
<g id="edge3" class="edge">
<title>SubtypeSymbol&#45;&gt;SimpleSubtypeSymbol</title>
<path fill="none" stroke="black" stroke-width="0.5" d="M294.06,-15.2C303.83,-16.42 314.36,-17.73 324.77,-19.03"/>
<polygon fill="black" stroke="black" stroke-width="0.5" points="324.68,-20.79 329.86,-19.67 325.12,-17.31 324.68,-20.79"/>
</g>
<!-- Symbol&#45;&gt;SubtypeSymbol -->
<g id="edge4" class="edge">
<title>Symbol&#45;&gt;SubtypeSymbol</title>
<path fill="none" stroke="black" stroke-width="0.5" d="M165.02,-9.5C174.31,-9.5 185.13,-9.5 195.78,-9.5"/>
<polygon fill="black" stroke="black" stroke-width="0.5" points="195.99,-11.25 200.99,-9.5 195.99,-7.75 195.99,-11.25"/>
</g>
</g>
</svg>
