<?xml version="1.0" encoding="UTF-8" standalone="no"?>
<!DOCTYPE svg PUBLIC "-//W3C//DTD SVG 1.1//EN"
 "http://www.w3.org/Graphics/SVG/1.1/DTD/svg11.dtd">
<!-- Generated by graphviz version 2.43.0 (0)
 -->
<!-- Title: inheritancee5a4c3d267 Pages: 1 -->
<svg width="524pt" height="64pt"
 viewBox="0.00 0.00 524.00 64.00" xmlns="http://www.w3.org/2000/svg" xmlns:xlink="http://www.w3.org/1999/xlink">
<g id="graph0" class="graph" transform="scale(1 1) rotate(0) translate(4 60)">
<title>inheritancee5a4c3d267</title>
<!-- DOMMixin -->
<g id="node1" class="node">
<title>DOMMixin</title>
<g id="a_node1"><a xlink:href="../pyGHDL.dom.html#pyGHDL.dom.DOMMixin" xlink:title="DOMMixin" target="_top">
<polygon fill="white" stroke="#1e90ff" points="277.5,-56 209.5,-56 209.5,-37 277.5,-37 277.5,-56"/>
<text text-anchor="middle" x="243.5" y="-44" font-family="Vera Sans, DejaVu Sans, Liberation Sans, Arial, Helvetica, sans" font-size="10.00">DOMMixin</text>
</a>
</g>
</g>
<!-- IndexedObjectOrFunctionCallSymbol -->
<g id="node2" class="node">
<title>IndexedObjectOrFunctionCallSymbol</title>
<g id="a_node2"><a xlink:href="../pyGHDL/pyGHDL.dom.Symbol.html#pyGHDL.dom.Symbol.IndexedObjectOrFunctionCallSymbol" xlink:title="IndexedObjectOrFunctionCallSymbol" target="_top">
<polygon fill="white" stroke="#1e90ff" points="516,-37 322,-37 322,-18 516,-18 516,-37"/>
<text text-anchor="middle" x="419" y="-25" font-family="Vera Sans, DejaVu Sans, Liberation Sans, Arial, Helvetica, sans" font-size="10.00">IndexedObjectOrFunctionCallSymbol</text>
</a>
</g>
</g>
<!-- DOMMixin&#45;&gt;IndexedObjectOrFunctionCallSymbol -->
<g id="edge2" class="edge">
<title>DOMMixin&#45;&gt;IndexedObjectOrFunctionCallSymbol</title>
<path fill="none" stroke="black" stroke-width="0.5" d="M277.54,-42.88C291.44,-41.36 308.38,-39.51 325.61,-37.62"/>
<polygon fill="black" stroke="black" stroke-width="0.5" points="326.18,-39.32 330.96,-37.03 325.8,-35.84 326.18,-39.32"/>
</g>
<!-- IndexedObjectOrFunctionCallSymbol&#45;&gt;IndexedObjectOrFunctionCallSymbol -->
<g id="edge1" class="edge">
<title>IndexedObjectOrFunctionCallSymbol&#45;&gt;IndexedObjectOrFunctionCallSymbol</title>
<path fill="none" stroke="black" stroke-width="0.5" d="M392.18,-37.08C379.13,-45.73 388.07,-55 419,-55 446.06,-55 456.29,-47.91 449.68,-40.34"/>
<polygon fill="black" stroke="black" stroke-width="0.5" points="450.77,-38.97 445.82,-37.08 448.51,-41.64 450.77,-38.97"/>
</g>
<!-- ObjectSymbol -->
<g id="node3" class="node">
<title>ObjectSymbol</title>
<polygon fill="white" stroke="#1e90ff" points="286,-19 201,-19 201,0 286,0 286,-19"/>
<text text-anchor="middle" x="243.5" y="-7" font-family="Vera Sans, DejaVu Sans, Liberation Sans, Arial, Helvetica, sans" font-size="10.00">ObjectSymbol</text>
</g>
<!-- ObjectSymbol&#45;&gt;IndexedObjectOrFunctionCallSymbol -->
<g id="edge3" class="edge">
<title>ObjectSymbol&#45;&gt;IndexedObjectOrFunctionCallSymbol</title>
<path fill="none" stroke="black" stroke-width="0.5" d="M286.06,-13.81C296.76,-14.92 308.73,-16.16 320.99,-17.44"/>
<polygon fill="black" stroke="black" stroke-width="0.5" points="321.1,-19.21 326.25,-17.98 321.46,-15.72 321.1,-19.21"/>
</g>
<!-- ModelEntity -->
<g id="node4" class="node">
<title>ModelEntity</title>
<g id="a_node4"><a xlink:title="``ModelEntity`` is the base&#45;class for all classes in the VHDL language model, except for mixin classes (see multiple">
<polygon fill="white" stroke="#1e90ff" points="75,-19 0,-19 0,0 75,0 75,-19"/>
<text text-anchor="middle" x="37.5" y="-7" font-family="Vera Sans, DejaVu Sans, Liberation Sans, Arial, Helvetica, sans" font-size="10.00">ModelEntity</text>
</a>
</g>
</g>
<!-- Symbol -->
<g id="node5" class="node">
<title>Symbol</title>
<polygon fill="white" stroke="#1e90ff" points="165,-19 111,-19 111,0 165,0 165,-19"/>
<text text-anchor="middle" x="138" y="-7" font-family="Vera Sans, DejaVu Sans, Liberation Sans, Arial, Helvetica, sans" font-size="10.00">Symbol</text>
</g>
<!-- ModelEntity&#45;&gt;Symbol -->
<g id="edge5" class="edge">
<title>ModelEntity&#45;&gt;Symbol</title>
<path fill="none" stroke="black" stroke-width="0.5" d="M75.18,-9.5C85.15,-9.5 95.85,-9.5 105.51,-9.5"/>
<polygon fill="black" stroke="black" stroke-width="0.5" points="105.75,-11.25 110.75,-9.5 105.75,-7.75 105.75,-11.25"/>
</g>
<!-- Symbol&#45;&gt;ObjectSymbol -->
<g id="edge4" class="edge">
<title>Symbol&#45;&gt;ObjectSymbol</title>
<path fill="none" stroke="black" stroke-width="0.5" d="M165.12,-9.5C174.38,-9.5 185.11,-9.5 195.57,-9.5"/>
<polygon fill="black" stroke="black" stroke-width="0.5" points="195.68,-11.25 200.68,-9.5 195.68,-7.75 195.68,-11.25"/>
</g>
</g>
</svg>
