<?xml version="1.0" encoding="UTF-8" standalone="no"?>
<!DOCTYPE svg PUBLIC "-//W3C//DTD SVG 1.1//EN"
 "http://www.w3.org/Graphics/SVG/1.1/DTD/svg11.dtd">
<!-- Generated by graphviz version 2.43.0 (0)
 -->
<!-- Title: inheritance8733250380 Pages: 1 -->
<svg width="479pt" height="64pt"
 viewBox="0.00 0.00 479.00 64.00" xmlns="http://www.w3.org/2000/svg" xmlns:xlink="http://www.w3.org/1999/xlink">
<g id="graph0" class="graph" transform="scale(1 1) rotate(0) translate(4 60)">
<title>inheritance8733250380</title>
<!-- Choice -->
<g id="node1" class="node">
<title>Choice</title>
<g id="a_node1"><a xlink:title="A ``Choice`` is a base&#45;class for all choices.">
<polygon fill="white" stroke="#1e90ff" points="165,-19 111,-19 111,0 165,0 165,-19"/>
<text text-anchor="middle" x="138" y="-7" font-family="Vera Sans, DejaVu Sans, Liberation Sans, Arial, Helvetica, sans" font-size="10.00">Choice</text>
</a>
</g>
</g>
<!-- ConcurrentChoice -->
<g id="node3" class="node">
<title>ConcurrentChoice</title>
<g id="a_node3"><a xlink:title="A ``ConcurrentChoice`` is a base&#45;class for all concurrent choices (in case...generate statements).">
<polygon fill="white" stroke="#1e90ff" points="304,-19 201,-19 201,0 304,0 304,-19"/>
<text text-anchor="middle" x="252.5" y="-7" font-family="Vera Sans, DejaVu Sans, Liberation Sans, Arial, Helvetica, sans" font-size="10.00">ConcurrentChoice</text>
</a>
</g>
</g>
<!-- Choice&#45;&gt;ConcurrentChoice -->
<g id="edge2" class="edge">
<title>Choice&#45;&gt;ConcurrentChoice</title>
<path fill="none" stroke="black" stroke-width="0.5" d="M165.09,-9.5C174.24,-9.5 184.9,-9.5 195.54,-9.5"/>
<polygon fill="black" stroke="black" stroke-width="0.5" points="195.76,-11.25 200.76,-9.5 195.76,-7.75 195.76,-11.25"/>
</g>
<!-- ModelEntity -->
<g id="node2" class="node">
<title>ModelEntity</title>
<g id="a_node2"><a xlink:title="``ModelEntity`` is the base&#45;class for all classes in the VHDL language model, except for mixin classes (see multiple">
<polygon fill="white" stroke="#1e90ff" points="75,-19 0,-19 0,0 75,0 75,-19"/>
<text text-anchor="middle" x="37.5" y="-7" font-family="Vera Sans, DejaVu Sans, Liberation Sans, Arial, Helvetica, sans" font-size="10.00">ModelEntity</text>
</a>
</g>
</g>
<!-- ModelEntity&#45;&gt;Choice -->
<g id="edge1" class="edge">
<title>ModelEntity&#45;&gt;Choice</title>
<path fill="none" stroke="black" stroke-width="0.5" d="M75.18,-9.5C85.15,-9.5 95.85,-9.5 105.51,-9.5"/>
<polygon fill="black" stroke="black" stroke-width="0.5" points="105.75,-11.25 110.75,-9.5 105.75,-7.75 105.75,-11.25"/>
</g>
<!-- RangedGenerateChoice -->
<g id="node5" class="node">
<title>RangedGenerateChoice</title>
<g id="a_node5"><a xlink:href="../pyGHDL/pyGHDL.dom.Concurrent.html#pyGHDL.dom.Concurrent.RangedGenerateChoice" xlink:title="RangedGenerateChoice" target="_top">
<polygon fill="white" stroke="#1e90ff" points="471,-37 340,-37 340,-18 471,-18 471,-37"/>
<text text-anchor="middle" x="405.5" y="-25" font-family="Vera Sans, DejaVu Sans, Liberation Sans, Arial, Helvetica, sans" font-size="10.00">RangedGenerateChoice</text>
</a>
</g>
</g>
<!-- ConcurrentChoice&#45;&gt;RangedGenerateChoice -->
<g id="edge5" class="edge">
<title>ConcurrentChoice&#45;&gt;RangedGenerateChoice</title>
<path fill="none" stroke="black" stroke-width="0.5" d="M304.2,-15.54C314.07,-16.72 324.57,-17.97 334.92,-19.21"/>
<polygon fill="black" stroke="black" stroke-width="0.5" points="334.82,-20.96 339.99,-19.81 335.23,-17.48 334.82,-20.96"/>
</g>
<!-- DOMMixin -->
<g id="node4" class="node">
<title>DOMMixin</title>
<g id="a_node4"><a xlink:href="../pyGHDL.dom.html#pyGHDL.dom.DOMMixin" xlink:title="DOMMixin" target="_top">
<polygon fill="white" stroke="#1e90ff" points="286.5,-56 218.5,-56 218.5,-37 286.5,-37 286.5,-56"/>
<text text-anchor="middle" x="252.5" y="-44" font-family="Vera Sans, DejaVu Sans, Liberation Sans, Arial, Helvetica, sans" font-size="10.00">DOMMixin</text>
</a>
</g>
</g>
<!-- DOMMixin&#45;&gt;RangedGenerateChoice -->
<g id="edge4" class="edge">
<title>DOMMixin&#45;&gt;RangedGenerateChoice</title>
<path fill="none" stroke="black" stroke-width="0.5" d="M286.64,-42.33C300.8,-40.55 317.9,-38.4 334.63,-36.29"/>
<polygon fill="black" stroke="black" stroke-width="0.5" points="335.07,-38 339.81,-35.64 334.63,-34.53 335.07,-38"/>
</g>
<!-- RangedGenerateChoice&#45;&gt;RangedGenerateChoice -->
<g id="edge3" class="edge">
<title>RangedGenerateChoice&#45;&gt;RangedGenerateChoice</title>
<path fill="none" stroke="black" stroke-width="0.5" d="M382.07,-37.08C370.68,-45.73 378.48,-55 405.5,-55 428.72,-55 437.75,-48.16 432.6,-40.74"/>
<polygon fill="black" stroke="black" stroke-width="0.5" points="433.7,-39.37 428.93,-37.08 431.23,-41.85 433.7,-39.37"/>
</g>
</g>
</svg>
