<?xml version="1.0" encoding="UTF-8" standalone="no"?>
<!DOCTYPE svg PUBLIC "-//W3C//DTD SVG 1.1//EN"
 "http://www.w3.org/Graphics/SVG/1.1/DTD/svg11.dtd">
<!-- Generated by graphviz version 2.43.0 (0)
 -->
<!-- Title: inheritancef54fc9c793 Pages: 1 -->
<svg width="521pt" height="101pt"
 viewBox="0.00 0.00 521.00 101.00" xmlns="http://www.w3.org/2000/svg" xmlns:xlink="http://www.w3.org/1999/xlink">
<g id="graph0" class="graph" transform="scale(1 1) rotate(0) translate(4 97)">
<title>inheritancef54fc9c793</title>
<!-- DOMMixin -->
<g id="node1" class="node">
<title>DOMMixin</title>
<g id="a_node1"><a xlink:href="../pyGHDL.dom.html#pyGHDL.dom.DOMMixin" xlink:title="DOMMixin" target="_top">
<polygon fill="white" stroke="#1e90ff" points="279,-93 211,-93 211,-74 279,-74 279,-93"/>
<text text-anchor="middle" x="245" y="-81" font-family="Vera Sans, DejaVu Sans, Liberation Sans, Arial, Helvetica, sans" font-size="10.00">DOMMixin</text>
</a>
</g>
</g>
<!-- PackageMembersReferenceSymbol -->
<g id="node5" class="node">
<title>PackageMembersReferenceSymbol</title>
<g id="a_node5"><a xlink:href="../pyGHDL/pyGHDL.dom.Symbol.html#pyGHDL.dom.Symbol.PackageMembersReferenceSymbol" xlink:title="A package member reference in a use clause." target="_top">
<polygon fill="white" stroke="#1e90ff" points="513,-56 325,-56 325,-37 513,-37 513,-56"/>
<text text-anchor="middle" x="419" y="-44" font-family="Vera Sans, DejaVu Sans, Liberation Sans, Arial, Helvetica, sans" font-size="10.00">PackageMembersReferenceSymbol</text>
</a>
</g>
</g>
<!-- DOMMixin&#45;&gt;PackageMembersReferenceSymbol -->
<g id="edge3" class="edge">
<title>DOMMixin&#45;&gt;PackageMembersReferenceSymbol</title>
<path fill="none" stroke="black" stroke-width="0.5" d="M279.16,-76.37C304.54,-70.91 339.94,-63.29 368.64,-57.12"/>
<polygon fill="black" stroke="black" stroke-width="0.5" points="369.03,-58.82 373.55,-56.06 368.3,-55.4 369.03,-58.82"/>
</g>
<!-- ModelEntity -->
<g id="node2" class="node">
<title>ModelEntity</title>
<g id="a_node2"><a xlink:title="``ModelEntity`` is the base&#45;class for all classes in the VHDL language model, except for mixin classes (see multiple">
<polygon fill="white" stroke="#1e90ff" points="75,-19 0,-19 0,0 75,0 75,-19"/>
<text text-anchor="middle" x="37.5" y="-7" font-family="Vera Sans, DejaVu Sans, Liberation Sans, Arial, Helvetica, sans" font-size="10.00">ModelEntity</text>
</a>
</g>
</g>
<!-- Name -->
<g id="node3" class="node">
<title>Name</title>
<g id="a_node3"><a xlink:title="``Name`` is the base&#45;class for all *names* in the VHDL language model.">
<polygon fill="white" stroke="#1e90ff" points="165,-19 111,-19 111,0 165,0 165,-19"/>
<text text-anchor="middle" x="138" y="-7" font-family="Vera Sans, DejaVu Sans, Liberation Sans, Arial, Helvetica, sans" font-size="10.00">Name</text>
</a>
</g>
</g>
<!-- ModelEntity&#45;&gt;Name -->
<g id="edge1" class="edge">
<title>ModelEntity&#45;&gt;Name</title>
<path fill="none" stroke="black" stroke-width="0.5" d="M75.18,-9.5C85.15,-9.5 95.85,-9.5 105.51,-9.5"/>
<polygon fill="black" stroke="black" stroke-width="0.5" points="105.75,-11.25 110.75,-9.5 105.75,-7.75 105.75,-11.25"/>
</g>
<!-- SelectedName -->
<g id="node6" class="node">
<title>SelectedName</title>
<polygon fill="white" stroke="#1e90ff" points="289,-19 201,-19 201,0 289,0 289,-19"/>
<text text-anchor="middle" x="245" y="-7" font-family="Vera Sans, DejaVu Sans, Liberation Sans, Arial, Helvetica, sans" font-size="10.00">SelectedName</text>
</g>
<!-- Name&#45;&gt;SelectedName -->
<g id="edge6" class="edge">
<title>Name&#45;&gt;SelectedName</title>
<path fill="none" stroke="black" stroke-width="0.5" d="M165.23,-9.5C174.52,-9.5 185.29,-9.5 195.83,-9.5"/>
<polygon fill="black" stroke="black" stroke-width="0.5" points="195.97,-11.25 200.97,-9.5 195.97,-7.75 195.97,-11.25"/>
</g>
<!-- NewSymbol -->
<g id="node4" class="node">
<title>NewSymbol</title>
<polygon fill="white" stroke="#1e90ff" points="282.5,-56 207.5,-56 207.5,-37 282.5,-37 282.5,-56"/>
<text text-anchor="middle" x="245" y="-44" font-family="Vera Sans, DejaVu Sans, Liberation Sans, Arial, Helvetica, sans" font-size="10.00">NewSymbol</text>
</g>
<!-- NewSymbol&#45;&gt;PackageMembersReferenceSymbol -->
<g id="edge5" class="edge">
<title>NewSymbol&#45;&gt;PackageMembersReferenceSymbol</title>
<path fill="none" stroke="black" stroke-width="0.5" d="M282.9,-46.5C293.97,-46.5 306.66,-46.5 319.75,-46.5"/>
<polygon fill="black" stroke="black" stroke-width="0.5" points="319.98,-48.25 324.98,-46.5 319.98,-44.75 319.98,-48.25"/>
</g>
<!-- PackageMembersReferenceSymbol&#45;&gt;PackageMembersReferenceSymbol -->
<g id="edge2" class="edge">
<title>PackageMembersReferenceSymbol&#45;&gt;PackageMembersReferenceSymbol</title>
<path fill="none" stroke="black" stroke-width="0.5" d="M392.18,-56.08C379.13,-64.73 388.07,-74 419,-74 446.06,-74 456.29,-66.91 449.68,-59.34"/>
<polygon fill="black" stroke="black" stroke-width="0.5" points="450.77,-57.97 445.82,-56.08 448.51,-60.64 450.77,-57.97"/>
</g>
<!-- SelectedName&#45;&gt;PackageMembersReferenceSymbol -->
<g id="edge4" class="edge">
<title>SelectedName&#45;&gt;PackageMembersReferenceSymbol</title>
<path fill="none" stroke="black" stroke-width="0.5" d="M289.4,-18.84C313.57,-24.03 343.73,-30.52 368.78,-35.91"/>
<polygon fill="black" stroke="black" stroke-width="0.5" points="368.46,-37.63 373.71,-36.97 369.19,-34.21 368.46,-37.63"/>
</g>
</g>
</svg>
