<?xml version="1.0" encoding="UTF-8" standalone="no"?>
<!DOCTYPE svg PUBLIC "-//W3C//DTD SVG 1.1//EN"
 "http://www.w3.org/Graphics/SVG/1.1/DTD/svg11.dtd">
<!-- Generated by graphviz version 2.43.0 (0)
 -->
<!-- Title: inheritance92d0d33c64 Pages: 1 -->
<svg width="303pt" height="64pt"
 viewBox="0.00 0.00 303.00 64.00" xmlns="http://www.w3.org/2000/svg" xmlns:xlink="http://www.w3.org/1999/xlink">
<g id="graph0" class="graph" transform="scale(1 1) rotate(0) translate(4 60)">
<title>inheritance92d0d33c64</title>
<!-- DOMMixin -->
<g id="node1" class="node">
<title>DOMMixin</title>
<g id="a_node1"><a xlink:href="../pyGHDL.dom.html#pyGHDL.dom.DOMMixin" xlink:title="DOMMixin" target="_top">
<polygon fill="white" stroke="#1e90ff" points="179,-56 111,-56 111,-37 179,-37 179,-56"/>
<text text-anchor="middle" x="145" y="-44" font-family="Vera Sans, DejaVu Sans, Liberation Sans, Arial, Helvetica, sans" font-size="10.00">DOMMixin</text>
</a>
</g>
</g>
<!-- DefaultClock -->
<g id="node2" class="node">
<title>DefaultClock</title>
<g id="a_node2"><a xlink:href="../pyGHDL/pyGHDL.dom.PSL.html#pyGHDL.dom.PSL.DefaultClock" xlink:title="DefaultClock" target="_top">
<polygon fill="white" stroke="#1e90ff" points="295,-37 215,-37 215,-18 295,-18 295,-37"/>
<text text-anchor="middle" x="255" y="-25" font-family="Vera Sans, DejaVu Sans, Liberation Sans, Arial, Helvetica, sans" font-size="10.00">DefaultClock</text>
</a>
</g>
</g>
<!-- DOMMixin&#45;&gt;DefaultClock -->
<g id="edge2" class="edge">
<title>DOMMixin&#45;&gt;DefaultClock</title>
<path fill="none" stroke="black" stroke-width="0.5" d="M179.28,-40.64C188.98,-38.94 199.72,-37.05 209.97,-35.25"/>
<polygon fill="black" stroke="black" stroke-width="0.5" points="210.33,-36.96 214.95,-34.37 209.73,-33.51 210.33,-36.96"/>
</g>
<!-- DefaultClock&#45;&gt;DefaultClock -->
<g id="edge1" class="edge">
<title>DefaultClock&#45;&gt;DefaultClock</title>
<path fill="none" stroke="black" stroke-width="0.5" d="M238.05,-37.08C229.8,-45.73 235.45,-55 255,-55 271.19,-55 277.85,-48.65 274.98,-41.55"/>
<polygon fill="black" stroke="black" stroke-width="0.5" points="276.21,-40.24 271.95,-37.08 273.31,-42.2 276.21,-40.24"/>
</g>
<!-- PSLEntity -->
<g id="node3" class="node">
<title>PSLEntity</title>
<polygon fill="white" stroke="#1e90ff" points="176,-19 114,-19 114,0 176,0 176,-19"/>
<text text-anchor="middle" x="145" y="-7" font-family="Vera Sans, DejaVu Sans, Liberation Sans, Arial, Helvetica, sans" font-size="10.00">PSLEntity</text>
</g>
<!-- PSLEntity&#45;&gt;DefaultClock -->
<g id="edge3" class="edge">
<title>PSLEntity&#45;&gt;DefaultClock</title>
<path fill="none" stroke="black" stroke-width="0.5" d="M176.08,-14.51C186.48,-16.25 198.35,-18.22 209.64,-20.11"/>
<polygon fill="black" stroke="black" stroke-width="0.5" points="209.56,-21.87 214.78,-20.96 210.14,-18.42 209.56,-21.87"/>
</g>
<!-- ModelEntity -->
<g id="node4" class="node">
<title>ModelEntity</title>
<g id="a_node4"><a xlink:title="``ModelEntity`` is the base&#45;class for all classes in the VHDL language model, except for mixin classes (see multiple">
<polygon fill="white" stroke="#1e90ff" points="75,-19 0,-19 0,0 75,0 75,-19"/>
<text text-anchor="middle" x="37.5" y="-7" font-family="Vera Sans, DejaVu Sans, Liberation Sans, Arial, Helvetica, sans" font-size="10.00">ModelEntity</text>
</a>
</g>
</g>
<!-- ModelEntity&#45;&gt;PSLEntity -->
<g id="edge4" class="edge">
<title>ModelEntity&#45;&gt;PSLEntity</title>
<path fill="none" stroke="black" stroke-width="0.5" d="M75.1,-9.5C85.95,-9.5 97.8,-9.5 108.56,-9.5"/>
<polygon fill="black" stroke="black" stroke-width="0.5" points="108.75,-11.25 113.75,-9.5 108.75,-7.75 108.75,-11.25"/>
</g>
</g>
</svg>
