<?xml version="1.0" encoding="UTF-8" standalone="no"?>
<!DOCTYPE svg PUBLIC "-//W3C//DTD SVG 1.1//EN"
 "http://www.w3.org/Graphics/SVG/1.1/DTD/svg11.dtd">
<!-- Generated by graphviz version 2.43.0 (0)
 -->
<!-- Title: inheritancedfc13750a8 Pages: 1 -->
<svg width="542pt" height="64pt"
 viewBox="0.00 0.00 542.00 64.00" xmlns="http://www.w3.org/2000/svg" xmlns:xlink="http://www.w3.org/1999/xlink">
<g id="graph0" class="graph" transform="scale(1 1) rotate(0) translate(4 60)">
<title>inheritancedfc13750a8</title>
<!-- ConstrainedCompositeSubtypeSymbol -->
<g id="node1" class="node">
<title>ConstrainedCompositeSubtypeSymbol</title>
<g id="a_node1"><a xlink:href="../pyGHDL/pyGHDL.dom.Symbol.html#pyGHDL.dom.Symbol.ConstrainedCompositeSubtypeSymbol" xlink:title="ConstrainedCompositeSubtypeSymbol" target="_top">
<polygon fill="white" stroke="#1e90ff" points="534,-37 330,-37 330,-18 534,-18 534,-37"/>
<text text-anchor="middle" x="432" y="-25" font-family="Vera Sans, DejaVu Sans, Liberation Sans, Arial, Helvetica, sans" font-size="10.00">ConstrainedCompositeSubtypeSymbol</text>
</a>
</g>
</g>
<!-- ConstrainedCompositeSubtypeSymbol&#45;&gt;ConstrainedCompositeSubtypeSymbol -->
<g id="edge1" class="edge">
<title>ConstrainedCompositeSubtypeSymbol&#45;&gt;ConstrainedCompositeSubtypeSymbol</title>
<path fill="none" stroke="black" stroke-width="0.5" d="M403.64,-37.08C389.84,-45.73 399.3,-55 432,-55 460.62,-55 471.43,-47.91 464.44,-40.34"/>
<polygon fill="black" stroke="black" stroke-width="0.5" points="465.36,-38.83 460.36,-37.08 463.18,-41.57 465.36,-38.83"/>
</g>
<!-- DOMMixin -->
<g id="node2" class="node">
<title>DOMMixin</title>
<g id="a_node2"><a xlink:href="../pyGHDL.dom.html#pyGHDL.dom.DOMMixin" xlink:title="DOMMixin" target="_top">
<polygon fill="white" stroke="#1e90ff" points="281.5,-56 213.5,-56 213.5,-37 281.5,-37 281.5,-56"/>
<text text-anchor="middle" x="247.5" y="-44" font-family="Vera Sans, DejaVu Sans, Liberation Sans, Arial, Helvetica, sans" font-size="10.00">DOMMixin</text>
</a>
</g>
</g>
<!-- DOMMixin&#45;&gt;ConstrainedCompositeSubtypeSymbol -->
<g id="edge2" class="edge">
<title>DOMMixin&#45;&gt;ConstrainedCompositeSubtypeSymbol</title>
<path fill="none" stroke="black" stroke-width="0.5" d="M281.55,-43.06C296.57,-41.5 315.21,-39.56 334.16,-37.58"/>
<polygon fill="black" stroke="black" stroke-width="0.5" points="334.72,-39.28 339.52,-37.02 334.36,-35.8 334.72,-39.28"/>
</g>
<!-- SubtypeSymbol -->
<g id="node3" class="node">
<title>SubtypeSymbol</title>
<polygon fill="white" stroke="#1e90ff" points="294,-19 201,-19 201,0 294,0 294,-19"/>
<text text-anchor="middle" x="247.5" y="-7" font-family="Vera Sans, DejaVu Sans, Liberation Sans, Arial, Helvetica, sans" font-size="10.00">SubtypeSymbol</text>
</g>
<!-- SubtypeSymbol&#45;&gt;ConstrainedCompositeSubtypeSymbol -->
<g id="edge3" class="edge">
<title>SubtypeSymbol&#45;&gt;ConstrainedCompositeSubtypeSymbol</title>
<path fill="none" stroke="black" stroke-width="0.5" d="M294.08,-14C304.98,-15.07 317.05,-16.26 329.38,-17.48"/>
<polygon fill="black" stroke="black" stroke-width="0.5" points="329.53,-19.25 334.68,-18 329.88,-15.77 329.53,-19.25"/>
</g>
<!-- ModelEntity -->
<g id="node4" class="node">
<title>ModelEntity</title>
<g id="a_node4"><a xlink:title="``ModelEntity`` is the base&#45;class for all classes in the VHDL language model, except for mixin classes (see multiple">
<polygon fill="white" stroke="#1e90ff" points="75,-19 0,-19 0,0 75,0 75,-19"/>
<text text-anchor="middle" x="37.5" y="-7" font-family="Vera Sans, DejaVu Sans, Liberation Sans, Arial, Helvetica, sans" font-size="10.00">ModelEntity</text>
</a>
</g>
</g>
<!-- Symbol -->
<g id="node5" class="node">
<title>Symbol</title>
<polygon fill="white" stroke="#1e90ff" points="165,-19 111,-19 111,0 165,0 165,-19"/>
<text text-anchor="middle" x="138" y="-7" font-family="Vera Sans, DejaVu Sans, Liberation Sans, Arial, Helvetica, sans" font-size="10.00">Symbol</text>
</g>
<!-- ModelEntity&#45;&gt;Symbol -->
<g id="edge5" class="edge">
<title>ModelEntity&#45;&gt;Symbol</title>
<path fill="none" stroke="black" stroke-width="0.5" d="M75.18,-9.5C85.15,-9.5 95.85,-9.5 105.51,-9.5"/>
<polygon fill="black" stroke="black" stroke-width="0.5" points="105.75,-11.25 110.75,-9.5 105.75,-7.75 105.75,-11.25"/>
</g>
<!-- Symbol&#45;&gt;SubtypeSymbol -->
<g id="edge4" class="edge">
<title>Symbol&#45;&gt;SubtypeSymbol</title>
<path fill="none" stroke="black" stroke-width="0.5" d="M165.02,-9.5C174.31,-9.5 185.13,-9.5 195.78,-9.5"/>
<polygon fill="black" stroke="black" stroke-width="0.5" points="195.99,-11.25 200.99,-9.5 195.99,-7.75 195.99,-11.25"/>
</g>
</g>
</svg>
