<?xml version="1.0" encoding="UTF-8" standalone="no"?>
<!DOCTYPE svg PUBLIC "-//W3C//DTD SVG 1.1//EN"
 "http://www.w3.org/Graphics/SVG/1.1/DTD/svg11.dtd">
<!-- Generated by graphviz version 2.43.0 (0)
 -->
<!-- Title: inheritance88e9d1aaa6 Pages: 1 -->
<svg width="562pt" height="156pt"
 viewBox="0.00 0.00 562.00 156.00" xmlns="http://www.w3.org/2000/svg" xmlns:xlink="http://www.w3.org/1999/xlink">
<g id="graph0" class="graph" transform="scale(1 1) rotate(0) translate(4 152)">
<title>inheritance88e9d1aaa6</title>
<!-- ConcurrentDeclarations -->
<g id="node1" class="node">
<title>ConcurrentDeclarations</title>
<polygon fill="white" stroke="#1e90ff" points="267,-148 136,-148 136,-129 267,-129 267,-148"/>
<text text-anchor="middle" x="201.5" y="-136" font-family="Vera Sans, DejaVu Sans, Liberation Sans, Arial, Helvetica, sans" font-size="10.00">ConcurrentDeclarations</text>
</g>
<!-- GenerateBranch -->
<g id="node4" class="node">
<title>GenerateBranch</title>
<g id="a_node4"><a xlink:title="A ``GenerateBranch`` is a base&#45;class for all branches in a generate statements.">
<polygon fill="white" stroke="#1e90ff" points="400.5,-101 305.5,-101 305.5,-82 400.5,-82 400.5,-101"/>
<text text-anchor="middle" x="353" y="-89" font-family="Vera Sans, DejaVu Sans, Liberation Sans, Arial, Helvetica, sans" font-size="10.00">GenerateBranch</text>
</a>
</g>
</g>
<!-- ConcurrentDeclarations&#45;&gt;GenerateBranch -->
<g id="edge5" class="edge">
<title>ConcurrentDeclarations&#45;&gt;GenerateBranch</title>
<path fill="none" stroke="black" stroke-width="0.5" d="M239,-128.92C248.48,-126.31 258.65,-123.4 268,-120.5 285.63,-115.04 305.13,-108.35 320.89,-102.77"/>
<polygon fill="black" stroke="black" stroke-width="0.5" points="321.53,-104.4 325.66,-101.08 320.36,-101.1 321.53,-104.4"/>
</g>
<!-- ConcurrentStatements -->
<g id="node2" class="node">
<title>ConcurrentStatements</title>
<polygon fill="white" stroke="#1e90ff" points="264.5,-111 138.5,-111 138.5,-92 264.5,-92 264.5,-111"/>
<text text-anchor="middle" x="201.5" y="-99" font-family="Vera Sans, DejaVu Sans, Liberation Sans, Arial, Helvetica, sans" font-size="10.00">ConcurrentStatements</text>
</g>
<!-- ConcurrentStatements&#45;&gt;GenerateBranch -->
<g id="edge6" class="edge">
<title>ConcurrentStatements&#45;&gt;GenerateBranch</title>
<path fill="none" stroke="black" stroke-width="0.5" d="M264.6,-97.35C276.43,-96.55 288.69,-95.73 300.16,-94.97"/>
<polygon fill="black" stroke="black" stroke-width="0.5" points="300.49,-96.7 305.36,-94.62 300.26,-93.21 300.49,-96.7"/>
</g>
<!-- ElsifGenerateBranch -->
<g id="node3" class="node">
<title>ElsifGenerateBranch</title>
<g id="a_node3"><a xlink:href="../pyGHDL/pyGHDL.dom.Concurrent.html#pyGHDL.dom.Concurrent.ElsifGenerateBranch" xlink:title="ElsifGenerateBranch" target="_top">
<polygon fill="white" stroke="#1e90ff" points="554,-73 438,-73 438,-54 554,-54 554,-73"/>
<text text-anchor="middle" x="496" y="-61" font-family="Vera Sans, DejaVu Sans, Liberation Sans, Arial, Helvetica, sans" font-size="10.00">ElsifGenerateBranch</text>
</a>
</g>
</g>
<!-- ElsifGenerateBranch&#45;&gt;ElsifGenerateBranch -->
<g id="edge1" class="edge">
<title>ElsifGenerateBranch&#45;&gt;ElsifGenerateBranch</title>
<path fill="none" stroke="black" stroke-width="0.5" d="M474.11,-73.08C463.47,-81.73 470.76,-91 496,-91 517.69,-91 526.13,-84.16 521.31,-76.74"/>
<polygon fill="black" stroke="black" stroke-width="0.5" points="522.58,-75.54 517.89,-73.08 520.03,-77.93 522.58,-75.54"/>
</g>
<!-- GenerateBranch&#45;&gt;ElsifGenerateBranch -->
<g id="edge2" class="edge">
<title>GenerateBranch&#45;&gt;ElsifGenerateBranch</title>
<path fill="none" stroke="black" stroke-width="0.5" d="M400.56,-82.25C413.85,-79.62 428.42,-76.72 442.06,-74.01"/>
<polygon fill="black" stroke="black" stroke-width="0.5" points="442.48,-75.71 447.04,-73.02 441.8,-72.28 442.48,-75.71"/>
</g>
<!-- MixinElsifBranch -->
<g id="node5" class="node">
<title>MixinElsifBranch</title>
<g id="a_node5"><a xlink:title="A ``BaseElsifBranch`` is a mixin&#45;class for all elsif&#45;branches.">
<polygon fill="white" stroke="#1e90ff" points="402,-55 304,-55 304,-36 402,-36 402,-55"/>
<text text-anchor="middle" x="353" y="-43" font-family="Vera Sans, DejaVu Sans, Liberation Sans, Arial, Helvetica, sans" font-size="10.00">MixinElsifBranch</text>
</a>
</g>
</g>
<!-- MixinElsifBranch&#45;&gt;ElsifGenerateBranch -->
<g id="edge3" class="edge">
<title>MixinElsifBranch&#45;&gt;ElsifGenerateBranch</title>
<path fill="none" stroke="black" stroke-width="0.5" d="M402.13,-51.64C412,-52.9 422.53,-54.25 432.81,-55.56"/>
<polygon fill="black" stroke="black" stroke-width="0.5" points="432.66,-57.31 437.84,-56.2 433.1,-53.83 432.66,-57.31"/>
</g>
<!-- ModelEntity -->
<g id="node6" class="node">
<title>ModelEntity</title>
<g id="a_node6"><a xlink:title="``ModelEntity`` is the base&#45;class for all classes in the VHDL language model, except for mixin classes (see multiple">
<polygon fill="white" stroke="#1e90ff" points="239,-74 164,-74 164,-55 239,-55 239,-74"/>
<text text-anchor="middle" x="201.5" y="-62" font-family="Vera Sans, DejaVu Sans, Liberation Sans, Arial, Helvetica, sans" font-size="10.00">ModelEntity</text>
</a>
</g>
</g>
<!-- ModelEntity&#45;&gt;GenerateBranch -->
<g id="edge4" class="edge">
<title>ModelEntity&#45;&gt;GenerateBranch</title>
<path fill="none" stroke="black" stroke-width="0.5" d="M239.07,-71.1C257.48,-74.43 280.11,-78.52 300.27,-82.16"/>
<polygon fill="black" stroke="black" stroke-width="0.5" points="300.1,-83.91 305.34,-83.07 300.73,-80.46 300.1,-83.91"/>
</g>
<!-- MixinBranch -->
<g id="node7" class="node">
<title>MixinBranch</title>
<g id="a_node7"><a xlink:title="A ``BaseBranch`` is a mixin&#45;class for all statements with branches.">
<polygon fill="white" stroke="#1e90ff" points="88,-56 11,-56 11,-37 88,-37 88,-56"/>
<text text-anchor="middle" x="49.5" y="-44" font-family="Vera Sans, DejaVu Sans, Liberation Sans, Arial, Helvetica, sans" font-size="10.00">MixinBranch</text>
</a>
</g>
</g>
<!-- MixinConditionalBranch -->
<g id="node9" class="node">
<title>MixinConditionalBranch</title>
<g id="a_node9"><a xlink:title="A ``BaseBranch`` is a mixin&#45;class for all branch statements with a condition.">
<polygon fill="white" stroke="#1e90ff" points="268,-37 135,-37 135,-18 268,-18 268,-37"/>
<text text-anchor="middle" x="201.5" y="-25" font-family="Vera Sans, DejaVu Sans, Liberation Sans, Arial, Helvetica, sans" font-size="10.00">MixinConditionalBranch</text>
</a>
</g>
</g>
<!-- MixinBranch&#45;&gt;MixinConditionalBranch -->
<g id="edge7" class="edge">
<title>MixinBranch&#45;&gt;MixinConditionalBranch</title>
<path fill="none" stroke="black" stroke-width="0.5" d="M88.35,-41.71C100.95,-40.11 115.42,-38.28 129.69,-36.47"/>
<polygon fill="black" stroke="black" stroke-width="0.5" points="130.19,-38.17 134.93,-35.81 129.75,-34.7 130.19,-38.17"/>
</g>
<!-- MixinConditional -->
<g id="node8" class="node">
<title>MixinConditional</title>
<g id="a_node8"><a xlink:title="A ``BaseConditional`` is a mixin&#45;class for all statements with a condition.">
<polygon fill="white" stroke="#1e90ff" points="99,-19 0,-19 0,0 99,0 99,-19"/>
<text text-anchor="middle" x="49.5" y="-7" font-family="Vera Sans, DejaVu Sans, Liberation Sans, Arial, Helvetica, sans" font-size="10.00">MixinConditional</text>
</a>
</g>
</g>
<!-- MixinConditional&#45;&gt;MixinConditionalBranch -->
<g id="edge8" class="edge">
<title>MixinConditional&#45;&gt;MixinConditionalBranch</title>
<path fill="none" stroke="black" stroke-width="0.5" d="M99.2,-15.34C108.98,-16.52 119.44,-17.77 129.79,-19.01"/>
<polygon fill="black" stroke="black" stroke-width="0.5" points="129.69,-20.76 134.86,-19.62 130.1,-17.29 129.69,-20.76"/>
</g>
<!-- MixinConditionalBranch&#45;&gt;MixinElsifBranch -->
<g id="edge9" class="edge">
<title>MixinConditionalBranch&#45;&gt;MixinElsifBranch</title>
<path fill="none" stroke="black" stroke-width="0.5" d="M268.07,-35.4C278.23,-36.62 288.61,-37.87 298.46,-39.05"/>
<polygon fill="black" stroke="black" stroke-width="0.5" points="298.39,-40.81 303.56,-39.67 298.8,-37.33 298.39,-40.81"/>
</g>
</g>
</svg>
