<?xml version="1.0" encoding="UTF-8" standalone="no"?>
<!DOCTYPE svg PUBLIC "-//W3C//DTD SVG 1.1//EN"
 "http://www.w3.org/Graphics/SVG/1.1/DTD/svg11.dtd">
<!-- Generated by graphviz version 2.43.0 (0)
 -->
<!-- Title: inheritancea148513133 Pages: 1 -->
<svg width="576pt" height="92pt"
 viewBox="0.00 0.00 576.00 92.34" xmlns="http://www.w3.org/2000/svg" xmlns:xlink="http://www.w3.org/1999/xlink">
<g id="graph0" class="graph" transform="scale(1.09 1.09) rotate(0) translate(4 97)">
<title>inheritancea148513133</title>
<!-- ConcurrentAssertStatement -->
<g id="node1" class="node">
<title>ConcurrentAssertStatement</title>
<g id="a_node1"><a xlink:href="../pyGHDL/pyGHDL.dom.Concurrent.html#pyGHDL.dom.Concurrent.ConcurrentAssertStatement" xlink:title="ConcurrentAssertStatement" target="_top">
<polygon fill="white" stroke="#1e90ff" points="622,-56 470,-56 470,-37 622,-37 622,-56"/>
<text text-anchor="middle" x="546" y="-44" font-family="Vera Sans, DejaVu Sans, Liberation Sans, Arial, Helvetica, sans" font-size="10.00">ConcurrentAssertStatement</text>
</a>
</g>
</g>
<!-- ConcurrentAssertStatement&#45;&gt;ConcurrentAssertStatement -->
<g id="edge1" class="edge">
<title>ConcurrentAssertStatement&#45;&gt;ConcurrentAssertStatement</title>
<path fill="none" stroke="black" stroke-width="0.5" d="M519.18,-56.08C506.13,-64.73 515.07,-74 546,-74 573.06,-74 583.29,-66.91 576.68,-59.34"/>
<polygon fill="black" stroke="black" stroke-width="0.5" points="577.77,-57.97 572.82,-56.08 575.51,-60.64 577.77,-57.97"/>
</g>
<!-- DOMMixin -->
<g id="node2" class="node">
<title>DOMMixin</title>
<g id="a_node2"><a xlink:href="../pyGHDL.dom.html#pyGHDL.dom.DOMMixin" xlink:title="DOMMixin" target="_top">
<polygon fill="white" stroke="#1e90ff" points="405.5,-93 337.5,-93 337.5,-74 405.5,-74 405.5,-93"/>
<text text-anchor="middle" x="371.5" y="-81" font-family="Vera Sans, DejaVu Sans, Liberation Sans, Arial, Helvetica, sans" font-size="10.00">DOMMixin</text>
</a>
</g>
</g>
<!-- DOMMixin&#45;&gt;ConcurrentAssertStatement -->
<g id="edge2" class="edge">
<title>DOMMixin&#45;&gt;ConcurrentAssertStatement</title>
<path fill="none" stroke="black" stroke-width="0.5" d="M405.76,-76.37C431.21,-70.91 466.71,-63.29 495.5,-57.12"/>
<polygon fill="black" stroke="black" stroke-width="0.5" points="495.9,-58.82 500.42,-56.06 495.17,-55.4 495.9,-58.82"/>
</g>
<!-- ConcurrentStatement -->
<g id="node3" class="node">
<title>ConcurrentStatement</title>
<g id="a_node3"><a xlink:title="A ``ConcurrentStatement`` is a base&#45;class for all concurrent statements.">
<polygon fill="white" stroke="#1e90ff" points="432,-56 311,-56 311,-37 432,-37 432,-56"/>
<text text-anchor="middle" x="371.5" y="-44" font-family="Vera Sans, DejaVu Sans, Liberation Sans, Arial, Helvetica, sans" font-size="10.00">ConcurrentStatement</text>
</a>
</g>
</g>
<!-- ConcurrentStatement&#45;&gt;ConcurrentAssertStatement -->
<g id="edge3" class="edge">
<title>ConcurrentStatement&#45;&gt;ConcurrentAssertStatement</title>
<path fill="none" stroke="black" stroke-width="0.5" d="M432.35,-46.5C442.81,-46.5 453.85,-46.5 464.76,-46.5"/>
<polygon fill="black" stroke="black" stroke-width="0.5" points="464.76,-48.25 469.76,-46.5 464.76,-44.75 464.76,-48.25"/>
</g>
<!-- MixinAssertStatement -->
<g id="node4" class="node">
<title>MixinAssertStatement</title>
<g id="a_node4"><a xlink:title="A ``MixinAssertStatement`` is a mixin&#45;class for all assert statements.">
<polygon fill="white" stroke="#1e90ff" points="434,-19 309,-19 309,0 434,0 434,-19"/>
<text text-anchor="middle" x="371.5" y="-7" font-family="Vera Sans, DejaVu Sans, Liberation Sans, Arial, Helvetica, sans" font-size="10.00">MixinAssertStatement</text>
</a>
</g>
</g>
<!-- MixinAssertStatement&#45;&gt;ConcurrentAssertStatement -->
<g id="edge4" class="edge">
<title>MixinAssertStatement&#45;&gt;ConcurrentAssertStatement</title>
<path fill="none" stroke="black" stroke-width="0.5" d="M416.92,-19.03C440.87,-24.17 470.5,-30.52 495.23,-35.82"/>
<polygon fill="black" stroke="black" stroke-width="0.5" points="495.17,-37.6 500.43,-36.94 495.91,-34.18 495.17,-37.6"/>
</g>
<!-- Statement -->
<g id="node5" class="node">
<title>Statement</title>
<polygon fill="white" stroke="#1e90ff" points="243.5,-56 175.5,-56 175.5,-37 243.5,-37 243.5,-56"/>
<text text-anchor="middle" x="209.5" y="-44" font-family="Vera Sans, DejaVu Sans, Liberation Sans, Arial, Helvetica, sans" font-size="10.00">Statement</text>
</g>
<!-- Statement&#45;&gt;ConcurrentStatement -->
<g id="edge5" class="edge">
<title>Statement&#45;&gt;ConcurrentStatement</title>
<path fill="none" stroke="black" stroke-width="0.5" d="M243.65,-46.5C261.62,-46.5 284.45,-46.5 305.78,-46.5"/>
<polygon fill="black" stroke="black" stroke-width="0.5" points="305.87,-48.25 310.87,-46.5 305.87,-44.75 305.87,-48.25"/>
</g>
<!-- LabeledEntityMixin -->
<g id="node6" class="node">
<title>LabeledEntityMixin</title>
<g id="a_node6"><a xlink:title="A ``LabeledEntityMixin`` is a mixin class for all VHDL entities that can have labels.">
<polygon fill="white" stroke="#1e90ff" points="110,-74 0,-74 0,-55 110,-55 110,-74"/>
<text text-anchor="middle" x="55" y="-62" font-family="Vera Sans, DejaVu Sans, Liberation Sans, Arial, Helvetica, sans" font-size="10.00">LabeledEntityMixin</text>
</a>
</g>
</g>
<!-- LabeledEntityMixin&#45;&gt;Statement -->
<g id="edge8" class="edge">
<title>LabeledEntityMixin&#45;&gt;Statement</title>
<path fill="none" stroke="black" stroke-width="0.5" d="M110.2,-58.1C130.07,-55.76 152.14,-53.15 170.32,-51.01"/>
<polygon fill="black" stroke="black" stroke-width="0.5" points="170.58,-52.74 175.34,-50.41 170.17,-49.26 170.58,-52.74"/>
</g>
<!-- MixinReportStatement -->
<g id="node7" class="node">
<title>MixinReportStatement</title>
<g id="a_node7"><a xlink:title="A ``MixinReportStatement`` is a mixin&#45;class for all report and assert statements.">
<polygon fill="white" stroke="#1e90ff" points="273,-19 146,-19 146,0 273,0 273,-19"/>
<text text-anchor="middle" x="209.5" y="-7" font-family="Vera Sans, DejaVu Sans, Liberation Sans, Arial, Helvetica, sans" font-size="10.00">MixinReportStatement</text>
</a>
</g>
</g>
<!-- MixinReportStatement&#45;&gt;MixinAssertStatement -->
<g id="edge6" class="edge">
<title>MixinReportStatement&#45;&gt;MixinAssertStatement</title>
<path fill="none" stroke="black" stroke-width="0.5" d="M273.28,-9.5C283.27,-9.5 293.63,-9.5 303.71,-9.5"/>
<polygon fill="black" stroke="black" stroke-width="0.5" points="303.95,-11.25 308.95,-9.5 303.95,-7.75 303.95,-11.25"/>
</g>
<!-- ModelEntity -->
<g id="node8" class="node">
<title>ModelEntity</title>
<g id="a_node8"><a xlink:title="``ModelEntity`` is the base&#45;class for all classes in the VHDL language model, except for mixin classes (see multiple">
<polygon fill="white" stroke="#1e90ff" points="92.5,-37 17.5,-37 17.5,-18 92.5,-18 92.5,-37"/>
<text text-anchor="middle" x="55" y="-25" font-family="Vera Sans, DejaVu Sans, Liberation Sans, Arial, Helvetica, sans" font-size="10.00">ModelEntity</text>
</a>
</g>
</g>
<!-- ModelEntity&#45;&gt;Statement -->
<g id="edge7" class="edge">
<title>ModelEntity&#45;&gt;Statement</title>
<path fill="none" stroke="black" stroke-width="0.5" d="M92.53,-32.05C116.06,-34.98 146.58,-38.79 170.41,-41.75"/>
<polygon fill="black" stroke="black" stroke-width="0.5" points="170.21,-43.49 175.39,-42.37 170.65,-40.02 170.21,-43.49"/>
</g>
</g>
</svg>
