<?xml version="1.0" encoding="UTF-8" standalone="no"?>
<!DOCTYPE svg PUBLIC "-//W3C//DTD SVG 1.1//EN"
 "http://www.w3.org/Graphics/SVG/1.1/DTD/svg11.dtd">
<!-- Generated by graphviz version 2.43.0 (0)
 -->
<!-- Title: inheritance1c02f2e68a Pages: 1 -->
<svg width="432pt" height="64pt"
 viewBox="0.00 0.00 432.00 64.00" xmlns="http://www.w3.org/2000/svg" xmlns:xlink="http://www.w3.org/1999/xlink">
<g id="graph0" class="graph" transform="scale(1 1) rotate(0) translate(4 60)">
<title>inheritance1c02f2e68a</title>
<!-- Choice -->
<g id="node1" class="node">
<title>Choice</title>
<g id="a_node1"><a xlink:title="A ``Choice`` is a base&#45;class for all choices.">
<polygon fill="white" stroke="#1e90ff" points="165,-19 111,-19 111,0 165,0 165,-19"/>
<text text-anchor="middle" x="138" y="-7" font-family="Vera Sans, DejaVu Sans, Liberation Sans, Arial, Helvetica, sans" font-size="10.00">Choice</text>
</a>
</g>
</g>
<!-- SequentialChoice -->
<g id="node5" class="node">
<title>SequentialChoice</title>
<g id="a_node5"><a xlink:title="A ``SequentialChoice`` is a base&#45;class for all sequential choices (in case statements).">
<polygon fill="white" stroke="#1e90ff" points="302,-19 201,-19 201,0 302,0 302,-19"/>
<text text-anchor="middle" x="251.5" y="-7" font-family="Vera Sans, DejaVu Sans, Liberation Sans, Arial, Helvetica, sans" font-size="10.00">SequentialChoice</text>
</a>
</g>
</g>
<!-- Choice&#45;&gt;SequentialChoice -->
<g id="edge5" class="edge">
<title>Choice&#45;&gt;SequentialChoice</title>
<path fill="none" stroke="black" stroke-width="0.5" d="M165.14,-9.5C174.32,-9.5 185.02,-9.5 195.66,-9.5"/>
<polygon fill="black" stroke="black" stroke-width="0.5" points="195.88,-11.25 200.88,-9.5 195.88,-7.75 195.88,-11.25"/>
</g>
<!-- ModelEntity -->
<g id="node2" class="node">
<title>ModelEntity</title>
<g id="a_node2"><a xlink:title="``ModelEntity`` is the base&#45;class for all classes in the VHDL language model, except for mixin classes (see multiple">
<polygon fill="white" stroke="#1e90ff" points="75,-19 0,-19 0,0 75,0 75,-19"/>
<text text-anchor="middle" x="37.5" y="-7" font-family="Vera Sans, DejaVu Sans, Liberation Sans, Arial, Helvetica, sans" font-size="10.00">ModelEntity</text>
</a>
</g>
</g>
<!-- ModelEntity&#45;&gt;Choice -->
<g id="edge1" class="edge">
<title>ModelEntity&#45;&gt;Choice</title>
<path fill="none" stroke="black" stroke-width="0.5" d="M75.18,-9.5C85.15,-9.5 95.85,-9.5 105.51,-9.5"/>
<polygon fill="black" stroke="black" stroke-width="0.5" points="105.75,-11.25 110.75,-9.5 105.75,-7.75 105.75,-11.25"/>
</g>
<!-- DOMMixin -->
<g id="node3" class="node">
<title>DOMMixin</title>
<g id="a_node3"><a xlink:href="../pyGHDL.dom.html#pyGHDL.dom.DOMMixin" xlink:title="DOMMixin" target="_top">
<polygon fill="white" stroke="#1e90ff" points="285.5,-56 217.5,-56 217.5,-37 285.5,-37 285.5,-56"/>
<text text-anchor="middle" x="251.5" y="-44" font-family="Vera Sans, DejaVu Sans, Liberation Sans, Arial, Helvetica, sans" font-size="10.00">DOMMixin</text>
</a>
</g>
</g>
<!-- RangedChoice -->
<g id="node4" class="node">
<title>RangedChoice</title>
<g id="a_node4"><a xlink:href="../pyGHDL/pyGHDL.dom.Sequential.html#pyGHDL.dom.Sequential.RangedChoice" xlink:title="RangedChoice" target="_top">
<polygon fill="white" stroke="#1e90ff" points="424,-37 338,-37 338,-18 424,-18 424,-37"/>
<text text-anchor="middle" x="381" y="-25" font-family="Vera Sans, DejaVu Sans, Liberation Sans, Arial, Helvetica, sans" font-size="10.00">RangedChoice</text>
</a>
</g>
</g>
<!-- DOMMixin&#45;&gt;RangedChoice -->
<g id="edge3" class="edge">
<title>DOMMixin&#45;&gt;RangedChoice</title>
<path fill="none" stroke="black" stroke-width="0.5" d="M285.67,-41.56C299.99,-39.42 317,-36.89 332.61,-34.56"/>
<polygon fill="black" stroke="black" stroke-width="0.5" points="333.16,-36.25 337.85,-33.78 332.65,-32.79 333.16,-36.25"/>
</g>
<!-- RangedChoice&#45;&gt;RangedChoice -->
<g id="edge2" class="edge">
<title>RangedChoice&#45;&gt;RangedChoice</title>
<path fill="none" stroke="black" stroke-width="0.5" d="M361.27,-37.08C351.67,-45.73 358.25,-55 381,-55 400.2,-55 407.88,-48.4 404.04,-41.15"/>
<polygon fill="black" stroke="black" stroke-width="0.5" points="405.25,-39.85 400.73,-37.08 402.53,-42.06 405.25,-39.85"/>
</g>
<!-- SequentialChoice&#45;&gt;RangedChoice -->
<g id="edge4" class="edge">
<title>SequentialChoice&#45;&gt;RangedChoice</title>
<path fill="none" stroke="black" stroke-width="0.5" d="M302.16,-16.51C312.16,-17.92 322.65,-19.4 332.58,-20.81"/>
<polygon fill="black" stroke="black" stroke-width="0.5" points="332.51,-22.56 337.71,-21.53 333,-19.1 332.51,-22.56"/>
</g>
</g>
</svg>
