<?xml version="1.0" encoding="UTF-8" standalone="no"?>
<!DOCTYPE svg PUBLIC "-//W3C//DTD SVG 1.1//EN"
 "http://www.w3.org/Graphics/SVG/1.1/DTD/svg11.dtd">
<!-- Generated by graphviz version 2.43.0 (0)
 -->
<!-- Title: inheritance637d0c3895 Pages: 1 -->
<svg width="434pt" height="64pt"
 viewBox="0.00 0.00 434.00 64.00" xmlns="http://www.w3.org/2000/svg" xmlns:xlink="http://www.w3.org/1999/xlink">
<g id="graph0" class="graph" transform="scale(1 1) rotate(0) translate(4 60)">
<title>inheritance637d0c3895</title>
<!-- Choice -->
<g id="node1" class="node">
<title>Choice</title>
<g id="a_node1"><a xlink:title="A ``Choice`` is a base&#45;class for all choices.">
<polygon fill="white" stroke="#1e90ff" points="165,-19 111,-19 111,0 165,0 165,-19"/>
<text text-anchor="middle" x="138" y="-7" font-family="Vera Sans, DejaVu Sans, Liberation Sans, Arial, Helvetica, sans" font-size="10.00">Choice</text>
</a>
</g>
</g>
<!-- SequentialChoice -->
<g id="node5" class="node">
<title>SequentialChoice</title>
<g id="a_node5"><a xlink:title="A ``SequentialChoice`` is a base&#45;class for all sequential choices (in case statements).">
<polygon fill="white" stroke="#1e90ff" points="302,-19 201,-19 201,0 302,0 302,-19"/>
<text text-anchor="middle" x="251.5" y="-7" font-family="Vera Sans, DejaVu Sans, Liberation Sans, Arial, Helvetica, sans" font-size="10.00">SequentialChoice</text>
</a>
</g>
</g>
<!-- Choice&#45;&gt;SequentialChoice -->
<g id="edge5" class="edge">
<title>Choice&#45;&gt;SequentialChoice</title>
<path fill="none" stroke="black" stroke-width="0.5" d="M165.14,-9.5C174.32,-9.5 185.02,-9.5 195.66,-9.5"/>
<polygon fill="black" stroke="black" stroke-width="0.5" points="195.88,-11.25 200.88,-9.5 195.88,-7.75 195.88,-11.25"/>
</g>
<!-- ModelEntity -->
<g id="node2" class="node">
<title>ModelEntity</title>
<g id="a_node2"><a xlink:title="``ModelEntity`` is the base&#45;class for all classes in the VHDL language model, except for mixin classes (see multiple">
<polygon fill="white" stroke="#1e90ff" points="75,-19 0,-19 0,0 75,0 75,-19"/>
<text text-anchor="middle" x="37.5" y="-7" font-family="Vera Sans, DejaVu Sans, Liberation Sans, Arial, Helvetica, sans" font-size="10.00">ModelEntity</text>
</a>
</g>
</g>
<!-- ModelEntity&#45;&gt;Choice -->
<g id="edge1" class="edge">
<title>ModelEntity&#45;&gt;Choice</title>
<path fill="none" stroke="black" stroke-width="0.5" d="M75.18,-9.5C85.15,-9.5 95.85,-9.5 105.51,-9.5"/>
<polygon fill="black" stroke="black" stroke-width="0.5" points="105.75,-11.25 110.75,-9.5 105.75,-7.75 105.75,-11.25"/>
</g>
<!-- DOMMixin -->
<g id="node3" class="node">
<title>DOMMixin</title>
<g id="a_node3"><a xlink:href="../pyGHDL.dom.html#pyGHDL.dom.DOMMixin" xlink:title="DOMMixin" target="_top">
<polygon fill="white" stroke="#1e90ff" points="285.5,-56 217.5,-56 217.5,-37 285.5,-37 285.5,-56"/>
<text text-anchor="middle" x="251.5" y="-44" font-family="Vera Sans, DejaVu Sans, Liberation Sans, Arial, Helvetica, sans" font-size="10.00">DOMMixin</text>
</a>
</g>
</g>
<!-- IndexedChoice -->
<g id="node4" class="node">
<title>IndexedChoice</title>
<g id="a_node4"><a xlink:href="../pyGHDL/pyGHDL.dom.Sequential.html#pyGHDL.dom.Sequential.IndexedChoice" xlink:title="IndexedChoice" target="_top">
<polygon fill="white" stroke="#1e90ff" points="426,-37 338,-37 338,-18 426,-18 426,-37"/>
<text text-anchor="middle" x="382" y="-25" font-family="Vera Sans, DejaVu Sans, Liberation Sans, Arial, Helvetica, sans" font-size="10.00">IndexedChoice</text>
</a>
</g>
</g>
<!-- DOMMixin&#45;&gt;IndexedChoice -->
<g id="edge3" class="edge">
<title>DOMMixin&#45;&gt;IndexedChoice</title>
<path fill="none" stroke="black" stroke-width="0.5" d="M285.59,-41.61C299.89,-39.49 316.9,-36.98 332.58,-34.66"/>
<polygon fill="black" stroke="black" stroke-width="0.5" points="333.14,-36.35 337.83,-33.88 332.63,-32.88 333.14,-36.35"/>
</g>
<!-- IndexedChoice&#45;&gt;IndexedChoice -->
<g id="edge2" class="edge">
<title>IndexedChoice&#45;&gt;IndexedChoice</title>
<path fill="none" stroke="black" stroke-width="0.5" d="M361.96,-37.08C352.22,-45.73 358.89,-55 382,-55 401.5,-55 409.3,-48.4 405.4,-41.15"/>
<polygon fill="black" stroke="black" stroke-width="0.5" points="406.57,-39.82 402.04,-37.08 403.88,-42.05 406.57,-39.82"/>
</g>
<!-- SequentialChoice&#45;&gt;IndexedChoice -->
<g id="edge4" class="edge">
<title>SequentialChoice&#45;&gt;IndexedChoice</title>
<path fill="none" stroke="black" stroke-width="0.5" d="M302.18,-16.46C312.16,-17.86 322.64,-19.33 332.58,-20.72"/>
<polygon fill="black" stroke="black" stroke-width="0.5" points="332.53,-22.48 337.73,-21.44 333.02,-19.01 332.53,-22.48"/>
</g>
</g>
</svg>
