<?xml version="1.0" encoding="UTF-8" standalone="no"?>
<!DOCTYPE svg PUBLIC "-//W3C//DTD SVG 1.1//EN"
 "http://www.w3.org/Graphics/SVG/1.1/DTD/svg11.dtd">
<!-- Generated by graphviz version 2.43.0 (0)
 -->
<!-- Title: inheritance3c3ffed631 Pages: 1 -->
<svg width="576pt" height="109pt"
 viewBox="0.00 0.00 576.00 109.15" xmlns="http://www.w3.org/2000/svg" xmlns:xlink="http://www.w3.org/1999/xlink">
<g id="graph0" class="graph" transform="scale(1.09 1.09) rotate(0) translate(4 115)">
<title>inheritance3c3ffed631</title>
<!-- DOMMixin -->
<g id="node1" class="node">
<title>DOMMixin</title>
<g id="a_node1"><a xlink:href="../pyGHDL.dom.html#pyGHDL.dom.DOMMixin" xlink:title="DOMMixin" target="_top">
<polygon fill="white" stroke="#1e90ff" points="405.5,-111 337.5,-111 337.5,-92 405.5,-92 405.5,-111"/>
<text text-anchor="middle" x="371.5" y="-99" font-family="Vera Sans, DejaVu Sans, Liberation Sans, Arial, Helvetica, sans" font-size="10.00">DOMMixin</text>
</a>
</g>
</g>
<!-- SequentialAssertStatement -->
<g id="node6" class="node">
<title>SequentialAssertStatement</title>
<g id="a_node6"><a xlink:href="../pyGHDL/pyGHDL.dom.Sequential.html#pyGHDL.dom.Sequential.SequentialAssertStatement" xlink:title="SequentialAssertStatement" target="_top">
<polygon fill="white" stroke="#1e90ff" points="620,-74 470,-74 470,-55 620,-55 620,-74"/>
<text text-anchor="middle" x="545" y="-62" font-family="Vera Sans, DejaVu Sans, Liberation Sans, Arial, Helvetica, sans" font-size="10.00">SequentialAssertStatement</text>
</a>
</g>
</g>
<!-- DOMMixin&#45;&gt;SequentialAssertStatement -->
<g id="edge3" class="edge">
<title>DOMMixin&#45;&gt;SequentialAssertStatement</title>
<path fill="none" stroke="black" stroke-width="0.5" d="M405.57,-94.37C430.87,-88.91 466.17,-81.29 494.78,-75.12"/>
<polygon fill="black" stroke="black" stroke-width="0.5" points="495.16,-76.83 499.68,-74.06 494.42,-73.41 495.16,-76.83"/>
</g>
<!-- LabeledEntityMixin -->
<g id="node2" class="node">
<title>LabeledEntityMixin</title>
<g id="a_node2"><a xlink:title="A ``LabeledEntityMixin`` is a mixin class for all VHDL entities that can have labels.">
<polygon fill="white" stroke="#1e90ff" points="110,-56 0,-56 0,-37 110,-37 110,-56"/>
<text text-anchor="middle" x="55" y="-44" font-family="Vera Sans, DejaVu Sans, Liberation Sans, Arial, Helvetica, sans" font-size="10.00">LabeledEntityMixin</text>
</a>
</g>
</g>
<!-- Statement -->
<g id="node8" class="node">
<title>Statement</title>
<polygon fill="white" stroke="#1e90ff" points="243.5,-37 175.5,-37 175.5,-18 243.5,-18 243.5,-37"/>
<text text-anchor="middle" x="209.5" y="-25" font-family="Vera Sans, DejaVu Sans, Liberation Sans, Arial, Helvetica, sans" font-size="10.00">Statement</text>
</g>
<!-- LabeledEntityMixin&#45;&gt;Statement -->
<g id="edge8" class="edge">
<title>LabeledEntityMixin&#45;&gt;Statement</title>
<path fill="none" stroke="black" stroke-width="0.5" d="M110.2,-39.75C130.07,-37.27 152.14,-34.52 170.32,-32.26"/>
<polygon fill="black" stroke="black" stroke-width="0.5" points="170.59,-33.99 175.34,-31.63 170.16,-30.51 170.59,-33.99"/>
</g>
<!-- MixinAssertStatement -->
<g id="node3" class="node">
<title>MixinAssertStatement</title>
<g id="a_node3"><a xlink:title="A ``MixinAssertStatement`` is a mixin&#45;class for all assert statements.">
<polygon fill="white" stroke="#1e90ff" points="434,-74 309,-74 309,-55 434,-55 434,-74"/>
<text text-anchor="middle" x="371.5" y="-62" font-family="Vera Sans, DejaVu Sans, Liberation Sans, Arial, Helvetica, sans" font-size="10.00">MixinAssertStatement</text>
</a>
</g>
</g>
<!-- MixinAssertStatement&#45;&gt;SequentialAssertStatement -->
<g id="edge5" class="edge">
<title>MixinAssertStatement&#45;&gt;SequentialAssertStatement</title>
<path fill="none" stroke="black" stroke-width="0.5" d="M434.42,-64.5C444.31,-64.5 454.66,-64.5 464.89,-64.5"/>
<polygon fill="black" stroke="black" stroke-width="0.5" points="464.9,-66.25 469.9,-64.5 464.9,-62.75 464.9,-66.25"/>
</g>
<!-- MixinReportStatement -->
<g id="node4" class="node">
<title>MixinReportStatement</title>
<g id="a_node4"><a xlink:title="A ``MixinReportStatement`` is a mixin&#45;class for all report and assert statements.">
<polygon fill="white" stroke="#1e90ff" points="273,-74 146,-74 146,-55 273,-55 273,-74"/>
<text text-anchor="middle" x="209.5" y="-62" font-family="Vera Sans, DejaVu Sans, Liberation Sans, Arial, Helvetica, sans" font-size="10.00">MixinReportStatement</text>
</a>
</g>
</g>
<!-- MixinReportStatement&#45;&gt;MixinAssertStatement -->
<g id="edge1" class="edge">
<title>MixinReportStatement&#45;&gt;MixinAssertStatement</title>
<path fill="none" stroke="black" stroke-width="0.5" d="M273.28,-64.5C283.27,-64.5 293.63,-64.5 303.71,-64.5"/>
<polygon fill="black" stroke="black" stroke-width="0.5" points="303.95,-66.25 308.95,-64.5 303.95,-62.75 303.95,-66.25"/>
</g>
<!-- ModelEntity -->
<g id="node5" class="node">
<title>ModelEntity</title>
<g id="a_node5"><a xlink:title="``ModelEntity`` is the base&#45;class for all classes in the VHDL language model, except for mixin classes (see multiple">
<polygon fill="white" stroke="#1e90ff" points="92.5,-19 17.5,-19 17.5,0 92.5,0 92.5,-19"/>
<text text-anchor="middle" x="55" y="-7" font-family="Vera Sans, DejaVu Sans, Liberation Sans, Arial, Helvetica, sans" font-size="10.00">ModelEntity</text>
</a>
</g>
</g>
<!-- ModelEntity&#45;&gt;Statement -->
<g id="edge7" class="edge">
<title>ModelEntity&#45;&gt;Statement</title>
<path fill="none" stroke="black" stroke-width="0.5" d="M92.53,-13.81C116.06,-16.59 146.58,-20.19 170.41,-23"/>
<polygon fill="black" stroke="black" stroke-width="0.5" points="170.22,-24.74 175.39,-23.59 170.63,-21.27 170.22,-24.74"/>
</g>
<!-- SequentialAssertStatement&#45;&gt;SequentialAssertStatement -->
<g id="edge2" class="edge">
<title>SequentialAssertStatement&#45;&gt;SequentialAssertStatement</title>
<path fill="none" stroke="black" stroke-width="0.5" d="M518.49,-74.08C505.59,-82.73 514.43,-92 545,-92 571.75,-92 581.86,-84.91 575.33,-77.34"/>
<polygon fill="black" stroke="black" stroke-width="0.5" points="576.45,-75.99 571.51,-74.08 574.18,-78.66 576.45,-75.99"/>
</g>
<!-- SequentialStatement -->
<g id="node7" class="node">
<title>SequentialStatement</title>
<g id="a_node7"><a xlink:title="A ``SequentialStatement`` is a base&#45;class for all sequential statements.">
<polygon fill="white" stroke="#1e90ff" points="431,-37 312,-37 312,-18 431,-18 431,-37"/>
<text text-anchor="middle" x="371.5" y="-25" font-family="Vera Sans, DejaVu Sans, Liberation Sans, Arial, Helvetica, sans" font-size="10.00">SequentialStatement</text>
</a>
</g>
</g>
<!-- SequentialStatement&#45;&gt;SequentialAssertStatement -->
<g id="edge4" class="edge">
<title>SequentialStatement&#45;&gt;SequentialAssertStatement</title>
<path fill="none" stroke="black" stroke-width="0.5" d="M416.67,-37.03C440.48,-42.17 469.94,-48.52 494.52,-53.82"/>
<polygon fill="black" stroke="black" stroke-width="0.5" points="494.43,-55.6 499.69,-54.94 495.17,-52.17 494.43,-55.6"/>
</g>
<!-- Statement&#45;&gt;SequentialStatement -->
<g id="edge6" class="edge">
<title>Statement&#45;&gt;SequentialStatement</title>
<path fill="none" stroke="black" stroke-width="0.5" d="M243.65,-27.5C261.87,-27.5 285.1,-27.5 306.68,-27.5"/>
<polygon fill="black" stroke="black" stroke-width="0.5" points="306.84,-29.25 311.84,-27.5 306.84,-25.75 306.84,-29.25"/>
</g>
</g>
</svg>
