<?xml version="1.0" encoding="UTF-8" standalone="no"?>
<!DOCTYPE svg PUBLIC "-//W3C//DTD SVG 1.1//EN"
 "http://www.w3.org/Graphics/SVG/1.1/DTD/svg11.dtd">
<!-- Generated by graphviz version 2.43.0 (0)
 -->
<!-- Title: inheritance0422672534 Pages: 1 -->
<svg width="520pt" height="64pt"
 viewBox="0.00 0.00 520.00 64.00" xmlns="http://www.w3.org/2000/svg" xmlns:xlink="http://www.w3.org/1999/xlink">
<g id="graph0" class="graph" transform="scale(1 1) rotate(0) translate(4 60)">
<title>inheritance0422672534</title>
<!-- DOMMixin -->
<g id="node1" class="node">
<title>DOMMixin</title>
<g id="a_node1"><a xlink:href="../pyGHDL.dom.html#pyGHDL.dom.DOMMixin" xlink:title="DOMMixin" target="_top">
<polygon fill="white" stroke="#1e90ff" points="277.5,-56 209.5,-56 209.5,-37 277.5,-37 277.5,-56"/>
<text text-anchor="middle" x="243.5" y="-44" font-family="Vera Sans, DejaVu Sans, Liberation Sans, Arial, Helvetica, sans" font-size="10.00">DOMMixin</text>
</a>
</g>
</g>
<!-- SimpleObjectOrFunctionCallSymbol -->
<g id="node5" class="node">
<title>SimpleObjectOrFunctionCallSymbol</title>
<g id="a_node5"><a xlink:href="../pyGHDL/pyGHDL.dom.Symbol.html#pyGHDL.dom.Symbol.SimpleObjectOrFunctionCallSymbol" xlink:title="SimpleObjectOrFunctionCallSymbol" target="_top">
<polygon fill="white" stroke="#1e90ff" points="512,-37 322,-37 322,-18 512,-18 512,-37"/>
<text text-anchor="middle" x="417" y="-25" font-family="Vera Sans, DejaVu Sans, Liberation Sans, Arial, Helvetica, sans" font-size="10.00">SimpleObjectOrFunctionCallSymbol</text>
</a>
</g>
</g>
<!-- DOMMixin&#45;&gt;SimpleObjectOrFunctionCallSymbol -->
<g id="edge3" class="edge">
<title>DOMMixin&#45;&gt;SimpleObjectOrFunctionCallSymbol</title>
<path fill="none" stroke="black" stroke-width="0.5" d="M277.57,-42.84C291.24,-41.32 307.83,-39.48 324.71,-37.61"/>
<polygon fill="black" stroke="black" stroke-width="0.5" points="325.17,-39.32 329.95,-37.03 324.79,-35.84 325.17,-39.32"/>
</g>
<!-- ModelEntity -->
<g id="node2" class="node">
<title>ModelEntity</title>
<g id="a_node2"><a xlink:title="``ModelEntity`` is the base&#45;class for all classes in the VHDL language model, except for mixin classes (see multiple">
<polygon fill="white" stroke="#1e90ff" points="75,-19 0,-19 0,0 75,0 75,-19"/>
<text text-anchor="middle" x="37.5" y="-7" font-family="Vera Sans, DejaVu Sans, Liberation Sans, Arial, Helvetica, sans" font-size="10.00">ModelEntity</text>
</a>
</g>
</g>
<!-- Symbol -->
<g id="node4" class="node">
<title>Symbol</title>
<polygon fill="white" stroke="#1e90ff" points="165,-19 111,-19 111,0 165,0 165,-19"/>
<text text-anchor="middle" x="138" y="-7" font-family="Vera Sans, DejaVu Sans, Liberation Sans, Arial, Helvetica, sans" font-size="10.00">Symbol</text>
</g>
<!-- ModelEntity&#45;&gt;Symbol -->
<g id="edge5" class="edge">
<title>ModelEntity&#45;&gt;Symbol</title>
<path fill="none" stroke="black" stroke-width="0.5" d="M75.18,-9.5C85.15,-9.5 95.85,-9.5 105.51,-9.5"/>
<polygon fill="black" stroke="black" stroke-width="0.5" points="105.75,-11.25 110.75,-9.5 105.75,-7.75 105.75,-11.25"/>
</g>
<!-- ObjectSymbol -->
<g id="node3" class="node">
<title>ObjectSymbol</title>
<polygon fill="white" stroke="#1e90ff" points="286,-19 201,-19 201,0 286,0 286,-19"/>
<text text-anchor="middle" x="243.5" y="-7" font-family="Vera Sans, DejaVu Sans, Liberation Sans, Arial, Helvetica, sans" font-size="10.00">ObjectSymbol</text>
</g>
<!-- ObjectSymbol&#45;&gt;SimpleObjectOrFunctionCallSymbol -->
<g id="edge4" class="edge">
<title>ObjectSymbol&#45;&gt;SimpleObjectOrFunctionCallSymbol</title>
<path fill="none" stroke="black" stroke-width="0.5" d="M286.02,-13.86C296.51,-14.96 308.22,-16.19 320.2,-17.45"/>
<polygon fill="black" stroke="black" stroke-width="0.5" points="320.19,-19.2 325.35,-17.99 320.56,-15.72 320.19,-19.2"/>
</g>
<!-- Symbol&#45;&gt;ObjectSymbol -->
<g id="edge1" class="edge">
<title>Symbol&#45;&gt;ObjectSymbol</title>
<path fill="none" stroke="black" stroke-width="0.5" d="M165.12,-9.5C174.38,-9.5 185.11,-9.5 195.57,-9.5"/>
<polygon fill="black" stroke="black" stroke-width="0.5" points="195.68,-11.25 200.68,-9.5 195.68,-7.75 195.68,-11.25"/>
</g>
<!-- SimpleObjectOrFunctionCallSymbol&#45;&gt;SimpleObjectOrFunctionCallSymbol -->
<g id="edge2" class="edge">
<title>SimpleObjectOrFunctionCallSymbol&#45;&gt;SimpleObjectOrFunctionCallSymbol</title>
<path fill="none" stroke="black" stroke-width="0.5" d="M390.49,-37.08C377.59,-45.73 386.43,-55 417,-55 443.75,-55 453.86,-47.91 447.33,-40.34"/>
<polygon fill="black" stroke="black" stroke-width="0.5" points="448.45,-38.99 443.51,-37.08 446.18,-41.66 448.45,-38.99"/>
</g>
</g>
</svg>
