<?xml version="1.0" encoding="UTF-8" standalone="no"?>
<!DOCTYPE svg PUBLIC "-//W3C//DTD SVG 1.1//EN"
 "http://www.w3.org/Graphics/SVG/1.1/DTD/svg11.dtd">
<!-- Generated by graphviz version 2.43.0 (0)
 -->
<!-- Title: inheritance3f7746e5d4 Pages: 1 -->
<svg width="576pt" height="92pt"
 viewBox="0.00 0.00 576.00 91.76" xmlns="http://www.w3.org/2000/svg" xmlns:xlink="http://www.w3.org/1999/xlink">
<g id="graph0" class="graph" transform="scale(1.1 1.1) rotate(0) translate(4 97)">
<title>inheritance3f7746e5d4</title>
<!-- BaseExpression -->
<g id="node1" class="node">
<title>BaseExpression</title>
<g id="a_node1"><a xlink:title="A ``BaseExpression`` is a base&#45;class for all expressions.">
<polygon fill="white" stroke="#1e90ff" points="205,-19 111,-19 111,0 205,0 205,-19"/>
<text text-anchor="middle" x="158" y="-7" font-family="Vera Sans, DejaVu Sans, Liberation Sans, Arial, Helvetica, sans" font-size="10.00">BaseExpression</text>
</a>
</g>
</g>
<!-- UnaryExpression -->
<g id="node8" class="node">
<title>UnaryExpression</title>
<g id="a_node8"><a xlink:title="A ``UnaryExpression`` is a base&#45;class for all unary expressions.">
<polygon fill="white" stroke="#1e90ff" points="340,-19 241,-19 241,0 340,0 340,-19"/>
<text text-anchor="middle" x="290.5" y="-7" font-family="Vera Sans, DejaVu Sans, Liberation Sans, Arial, Helvetica, sans" font-size="10.00">UnaryExpression</text>
</a>
</g>
</g>
<!-- BaseExpression&#45;&gt;UnaryExpression -->
<g id="edge8" class="edge">
<title>BaseExpression&#45;&gt;UnaryExpression</title>
<path fill="none" stroke="black" stroke-width="0.5" d="M205.01,-9.5C214.88,-9.5 225.4,-9.5 235.54,-9.5"/>
<polygon fill="black" stroke="black" stroke-width="0.5" points="235.81,-11.25 240.81,-9.5 235.81,-7.75 235.81,-11.25"/>
</g>
<!-- ModelEntity -->
<g id="node2" class="node">
<title>ModelEntity</title>
<g id="a_node2"><a xlink:title="``ModelEntity`` is the base&#45;class for all classes in the VHDL language model, except for mixin classes (see multiple">
<polygon fill="white" stroke="#1e90ff" points="75,-19 0,-19 0,0 75,0 75,-19"/>
<text text-anchor="middle" x="37.5" y="-7" font-family="Vera Sans, DejaVu Sans, Liberation Sans, Arial, Helvetica, sans" font-size="10.00">ModelEntity</text>
</a>
</g>
</g>
<!-- ModelEntity&#45;&gt;BaseExpression -->
<g id="edge1" class="edge">
<title>ModelEntity&#45;&gt;BaseExpression</title>
<path fill="none" stroke="black" stroke-width="0.5" d="M75.02,-9.5C84.72,-9.5 95.38,-9.5 105.71,-9.5"/>
<polygon fill="black" stroke="black" stroke-width="0.5" points="105.75,-11.25 110.75,-9.5 105.75,-7.75 105.75,-11.25"/>
</g>
<!-- DOMMixin -->
<g id="node3" class="node">
<title>DOMMixin</title>
<g id="a_node3"><a xlink:href="../pyGHDL.dom.html#pyGHDL.dom.DOMMixin" xlink:title="DOMMixin" target="_top">
<polygon fill="white" stroke="#1e90ff" points="454,-93 386,-93 386,-74 454,-74 454,-93"/>
<text text-anchor="middle" x="420" y="-81" font-family="Vera Sans, DejaVu Sans, Liberation Sans, Arial, Helvetica, sans" font-size="10.00">DOMMixin</text>
</a>
</g>
</g>
<!-- ParenthesisExpression -->
<g id="node5" class="node">
<title>ParenthesisExpression</title>
<g id="a_node5"><a xlink:href="../pyGHDL/pyGHDL.dom.Expression.html#pyGHDL.dom.Expression.ParenthesisExpression" xlink:title="ParenthesisExpression" target="_top">
<polygon fill="white" stroke="#1e90ff" points="626,-37 500,-37 500,-18 626,-18 626,-37"/>
<text text-anchor="middle" x="563" y="-25" font-family="Vera Sans, DejaVu Sans, Liberation Sans, Arial, Helvetica, sans" font-size="10.00">ParenthesisExpression</text>
</a>
</g>
</g>
<!-- DOMMixin&#45;&gt;ParenthesisExpression -->
<g id="edge3" class="edge">
<title>DOMMixin&#45;&gt;ParenthesisExpression</title>
<path fill="none" stroke="black" stroke-width="0.5" d="M445.24,-73.87C469.7,-64.16 507.46,-49.16 533.38,-38.87"/>
<polygon fill="black" stroke="black" stroke-width="0.5" points="534.08,-40.47 538.08,-37 532.78,-37.22 534.08,-40.47"/>
</g>
<!-- Generic -->
<g id="node4" class="node">
<title>Generic</title>
<g id="a_node4"><a xlink:title="Abstract base class for generic types.">
<polygon fill="white" stroke="#1e90ff" points="317.5,-56 263.5,-56 263.5,-37 317.5,-37 317.5,-56"/>
<text text-anchor="middle" x="290.5" y="-44" font-family="Vera Sans, DejaVu Sans, Liberation Sans, Arial, Helvetica, sans" font-size="10.00">Generic</text>
</a>
</g>
</g>
<!-- Protocol -->
<g id="node7" class="node">
<title>Protocol</title>
<g id="a_node7"><a xlink:title="Base class for protocol classes.">
<polygon fill="white" stroke="#1e90ff" points="448,-56 392,-56 392,-37 448,-37 448,-56"/>
<text text-anchor="middle" x="420" y="-44" font-family="Vera Sans, DejaVu Sans, Liberation Sans, Arial, Helvetica, sans" font-size="10.00">Protocol</text>
</a>
</g>
</g>
<!-- Generic&#45;&gt;Protocol -->
<g id="edge5" class="edge">
<title>Generic&#45;&gt;Protocol</title>
<path fill="none" stroke="black" stroke-width="0.5" d="M317.61,-46.5C337.57,-46.5 365.21,-46.5 386.59,-46.5"/>
<polygon fill="black" stroke="black" stroke-width="0.5" points="386.6,-48.25 391.6,-46.5 386.6,-44.75 386.6,-48.25"/>
</g>
<!-- SubExpression -->
<g id="node6" class="node">
<title>SubExpression</title>
<polygon fill="white" stroke="#1e90ff" points="464,-19 376,-19 376,0 464,0 464,-19"/>
<text text-anchor="middle" x="420" y="-7" font-family="Vera Sans, DejaVu Sans, Liberation Sans, Arial, Helvetica, sans" font-size="10.00">SubExpression</text>
</g>
<!-- ParenthesisExpression&#45;&gt;SubExpression -->
<g id="edge7" class="edge">
<title>ParenthesisExpression&#45;&gt;SubExpression</title>
<path fill="none" stroke="black" stroke-width="0.5" d="M499.91,-26.28C485.01,-24.53 469.59,-22.31 456.38,-19.96"/>
<polygon fill="black" stroke="black" stroke-width="0.5" points="456.48,-18.2 451.25,-19.02 455.85,-21.64 456.48,-18.2"/>
</g>
<!-- SubExpression&#45;&gt;ParenthesisExpression -->
<g id="edge2" class="edge">
<title>SubExpression&#45;&gt;ParenthesisExpression</title>
<path fill="none" stroke="black" stroke-width="0.5" d="M464.07,-8.72C484.06,-10.55 507.53,-13.65 526.48,-17.02"/>
<polygon fill="black" stroke="black" stroke-width="0.5" points="526.47,-18.79 531.7,-17.97 527.1,-15.35 526.47,-18.79"/>
</g>
<!-- Protocol&#45;&gt;ParenthesisExpression -->
<g id="edge4" class="edge">
<title>Protocol&#45;&gt;ParenthesisExpression</title>
<path fill="none" stroke="black" stroke-width="0.5" d="M448.19,-42.84C461.53,-41.04 478.25,-38.78 494.74,-36.56"/>
<polygon fill="black" stroke="black" stroke-width="0.5" points="495.13,-38.28 499.85,-35.88 494.66,-34.81 495.13,-38.28"/>
</g>
<!-- UnaryExpression&#45;&gt;SubExpression -->
<g id="edge6" class="edge">
<title>UnaryExpression&#45;&gt;SubExpression</title>
<path fill="none" stroke="black" stroke-width="0.5" d="M340.07,-9.5C350.13,-9.5 360.74,-9.5 370.79,-9.5"/>
<polygon fill="black" stroke="black" stroke-width="0.5" points="371,-11.25 376,-9.5 371,-7.75 371,-11.25"/>
</g>
</g>
</svg>
