<?xml version="1.0" encoding="UTF-8" standalone="no"?>
<!DOCTYPE svg PUBLIC "-//W3C//DTD SVG 1.1//EN"
 "http://www.w3.org/Graphics/SVG/1.1/DTD/svg11.dtd">
<!-- Generated by graphviz version 2.43.0 (0)
 -->
<!-- Title: inheritance8a20b739ef Pages: 1 -->
<svg width="343pt" height="101pt"
 viewBox="0.00 0.00 343.00 101.00" xmlns="http://www.w3.org/2000/svg" xmlns:xlink="http://www.w3.org/1999/xlink">
<g id="graph0" class="graph" transform="scale(1 1) rotate(0) translate(4 97)">
<title>inheritance8a20b739ef</title>
<!-- ArchitectureSymbol -->
<g id="node1" class="node">
<title>ArchitectureSymbol</title>
<g id="a_node1"><a xlink:href="../pyGHDL/pyGHDL.dom.Symbol.html#pyGHDL.dom.Symbol.ArchitectureSymbol" xlink:title="An entity reference in an entity instantiation with architecture name." target="_top">
<polygon fill="white" stroke="#1e90ff" points="335,-56 222,-56 222,-37 335,-37 335,-56"/>
<text text-anchor="middle" x="278.5" y="-44" font-family="Vera Sans, DejaVu Sans, Liberation Sans, Arial, Helvetica, sans" font-size="10.00">ArchitectureSymbol</text>
</a>
</g>
</g>
<!-- ArchitectureSymbol&#45;&gt;ArchitectureSymbol -->
<g id="edge1" class="edge">
<title>ArchitectureSymbol&#45;&gt;ArchitectureSymbol</title>
<path fill="none" stroke="black" stroke-width="0.5" d="M258.46,-56.08C248.72,-64.73 255.39,-74 278.5,-74 298,-74 305.8,-67.4 301.9,-60.15"/>
<polygon fill="black" stroke="black" stroke-width="0.5" points="303.07,-58.82 298.54,-56.08 300.38,-61.05 303.07,-58.82"/>
</g>
<!-- DOMMixin -->
<g id="node2" class="node">
<title>DOMMixin</title>
<g id="a_node2"><a xlink:href="../pyGHDL.dom.html#pyGHDL.dom.DOMMixin" xlink:title="DOMMixin" target="_top">
<polygon fill="white" stroke="#1e90ff" points="182.5,-93 114.5,-93 114.5,-74 182.5,-74 182.5,-93"/>
<text text-anchor="middle" x="148.5" y="-81" font-family="Vera Sans, DejaVu Sans, Liberation Sans, Arial, Helvetica, sans" font-size="10.00">DOMMixin</text>
</a>
</g>
</g>
<!-- DOMMixin&#45;&gt;ArchitectureSymbol -->
<g id="edge2" class="edge">
<title>DOMMixin&#45;&gt;ArchitectureSymbol</title>
<path fill="none" stroke="black" stroke-width="0.5" d="M182.46,-73.97C199.8,-68.96 221.14,-62.79 239.2,-57.57"/>
<polygon fill="black" stroke="black" stroke-width="0.5" points="239.89,-59.19 244.2,-56.12 238.91,-55.83 239.89,-59.19"/>
</g>
<!-- Name -->
<g id="node3" class="node">
<title>Name</title>
<g id="a_node3"><a xlink:title="``Name`` is the base&#45;class for all *names* in the VHDL language model.">
<polygon fill="white" stroke="#1e90ff" points="175.5,-56 121.5,-56 121.5,-37 175.5,-37 175.5,-56"/>
<text text-anchor="middle" x="148.5" y="-44" font-family="Vera Sans, DejaVu Sans, Liberation Sans, Arial, Helvetica, sans" font-size="10.00">Name</text>
</a>
</g>
</g>
<!-- Name&#45;&gt;ArchitectureSymbol -->
<g id="edge3" class="edge">
<title>Name&#45;&gt;ArchitectureSymbol</title>
<path fill="none" stroke="black" stroke-width="0.5" d="M175.71,-46.5C187.57,-46.5 202.12,-46.5 216.47,-46.5"/>
<polygon fill="black" stroke="black" stroke-width="0.5" points="216.74,-48.25 221.74,-46.5 216.74,-44.75 216.74,-48.25"/>
</g>
<!-- NewSymbol -->
<g id="node4" class="node">
<title>NewSymbol</title>
<polygon fill="white" stroke="#1e90ff" points="186,-19 111,-19 111,0 186,0 186,-19"/>
<text text-anchor="middle" x="148.5" y="-7" font-family="Vera Sans, DejaVu Sans, Liberation Sans, Arial, Helvetica, sans" font-size="10.00">NewSymbol</text>
</g>
<!-- NewSymbol&#45;&gt;ArchitectureSymbol -->
<g id="edge4" class="edge">
<title>NewSymbol&#45;&gt;ArchitectureSymbol</title>
<path fill="none" stroke="black" stroke-width="0.5" d="M182.46,-19.03C199.8,-24.04 221.14,-30.21 239.2,-35.43"/>
<polygon fill="black" stroke="black" stroke-width="0.5" points="238.91,-37.17 244.2,-36.88 239.89,-33.81 238.91,-37.17"/>
</g>
<!-- ModelEntity -->
<g id="node5" class="node">
<title>ModelEntity</title>
<g id="a_node5"><a xlink:title="``ModelEntity`` is the base&#45;class for all classes in the VHDL language model, except for mixin classes (see multiple">
<polygon fill="white" stroke="#1e90ff" points="75,-56 0,-56 0,-37 75,-37 75,-56"/>
<text text-anchor="middle" x="37.5" y="-44" font-family="Vera Sans, DejaVu Sans, Liberation Sans, Arial, Helvetica, sans" font-size="10.00">ModelEntity</text>
</a>
</g>
</g>
<!-- ModelEntity&#45;&gt;Name -->
<g id="edge5" class="edge">
<title>ModelEntity&#45;&gt;Name</title>
<path fill="none" stroke="black" stroke-width="0.5" d="M75.1,-46.5C88.53,-46.5 103.59,-46.5 116.49,-46.5"/>
<polygon fill="black" stroke="black" stroke-width="0.5" points="116.5,-48.25 121.5,-46.5 116.5,-44.75 116.5,-48.25"/>
</g>
</g>
</svg>
