<?xml version="1.0" encoding="UTF-8" standalone="no"?>
<!DOCTYPE svg PUBLIC "-//W3C//DTD SVG 1.1//EN"
 "http://www.w3.org/Graphics/SVG/1.1/DTD/svg11.dtd">
<!-- Generated by graphviz version 2.43.0 (0)
 -->
<!-- Title: inheritance926c9b4989 Pages: 1 -->
<svg width="476pt" height="101pt"
 viewBox="0.00 0.00 476.00 101.00" xmlns="http://www.w3.org/2000/svg" xmlns:xlink="http://www.w3.org/1999/xlink">
<g id="graph0" class="graph" transform="scale(1 1) rotate(0) translate(4 97)">
<title>inheritance926c9b4989</title>
<!-- DOMMixin -->
<g id="node1" class="node">
<title>DOMMixin</title>
<g id="a_node1"><a xlink:href="../pyGHDL.dom.html#pyGHDL.dom.DOMMixin" xlink:title="DOMMixin" target="_top">
<polygon fill="white" stroke="#1e90ff" points="279,-93 211,-93 211,-74 279,-74 279,-93"/>
<text text-anchor="middle" x="245" y="-81" font-family="Vera Sans, DejaVu Sans, Liberation Sans, Arial, Helvetica, sans" font-size="10.00">DOMMixin</text>
</a>
</g>
</g>
<!-- PackageReferenceSymbol -->
<g id="node5" class="node">
<title>PackageReferenceSymbol</title>
<g id="a_node5"><a xlink:href="../pyGHDL/pyGHDL.dom.Symbol.html#pyGHDL.dom.Symbol.PackageReferenceSymbol" xlink:title="A package reference in a use clause." target="_top">
<polygon fill="white" stroke="#1e90ff" points="468,-56 325,-56 325,-37 468,-37 468,-56"/>
<text text-anchor="middle" x="396.5" y="-44" font-family="Vera Sans, DejaVu Sans, Liberation Sans, Arial, Helvetica, sans" font-size="10.00">PackageReferenceSymbol</text>
</a>
</g>
</g>
<!-- DOMMixin&#45;&gt;PackageReferenceSymbol -->
<g id="edge3" class="edge">
<title>DOMMixin&#45;&gt;PackageReferenceSymbol</title>
<path fill="none" stroke="black" stroke-width="0.5" d="M279.18,-75.29C300.62,-69.98 328.76,-63.02 351.99,-57.27"/>
<polygon fill="black" stroke="black" stroke-width="0.5" points="352.43,-58.96 356.86,-56.06 351.59,-55.56 352.43,-58.96"/>
</g>
<!-- ModelEntity -->
<g id="node2" class="node">
<title>ModelEntity</title>
<g id="a_node2"><a xlink:title="``ModelEntity`` is the base&#45;class for all classes in the VHDL language model, except for mixin classes (see multiple">
<polygon fill="white" stroke="#1e90ff" points="75,-19 0,-19 0,0 75,0 75,-19"/>
<text text-anchor="middle" x="37.5" y="-7" font-family="Vera Sans, DejaVu Sans, Liberation Sans, Arial, Helvetica, sans" font-size="10.00">ModelEntity</text>
</a>
</g>
</g>
<!-- Name -->
<g id="node3" class="node">
<title>Name</title>
<g id="a_node3"><a xlink:title="``Name`` is the base&#45;class for all *names* in the VHDL language model.">
<polygon fill="white" stroke="#1e90ff" points="165,-19 111,-19 111,0 165,0 165,-19"/>
<text text-anchor="middle" x="138" y="-7" font-family="Vera Sans, DejaVu Sans, Liberation Sans, Arial, Helvetica, sans" font-size="10.00">Name</text>
</a>
</g>
</g>
<!-- ModelEntity&#45;&gt;Name -->
<g id="edge1" class="edge">
<title>ModelEntity&#45;&gt;Name</title>
<path fill="none" stroke="black" stroke-width="0.5" d="M75.18,-9.5C85.15,-9.5 95.85,-9.5 105.51,-9.5"/>
<polygon fill="black" stroke="black" stroke-width="0.5" points="105.75,-11.25 110.75,-9.5 105.75,-7.75 105.75,-11.25"/>
</g>
<!-- SelectedName -->
<g id="node6" class="node">
<title>SelectedName</title>
<polygon fill="white" stroke="#1e90ff" points="289,-19 201,-19 201,0 289,0 289,-19"/>
<text text-anchor="middle" x="245" y="-7" font-family="Vera Sans, DejaVu Sans, Liberation Sans, Arial, Helvetica, sans" font-size="10.00">SelectedName</text>
</g>
<!-- Name&#45;&gt;SelectedName -->
<g id="edge6" class="edge">
<title>Name&#45;&gt;SelectedName</title>
<path fill="none" stroke="black" stroke-width="0.5" d="M165.23,-9.5C174.52,-9.5 185.29,-9.5 195.83,-9.5"/>
<polygon fill="black" stroke="black" stroke-width="0.5" points="195.97,-11.25 200.97,-9.5 195.97,-7.75 195.97,-11.25"/>
</g>
<!-- NewSymbol -->
<g id="node4" class="node">
<title>NewSymbol</title>
<polygon fill="white" stroke="#1e90ff" points="282.5,-56 207.5,-56 207.5,-37 282.5,-37 282.5,-56"/>
<text text-anchor="middle" x="245" y="-44" font-family="Vera Sans, DejaVu Sans, Liberation Sans, Arial, Helvetica, sans" font-size="10.00">NewSymbol</text>
</g>
<!-- NewSymbol&#45;&gt;PackageReferenceSymbol -->
<g id="edge5" class="edge">
<title>NewSymbol&#45;&gt;PackageReferenceSymbol</title>
<path fill="none" stroke="black" stroke-width="0.5" d="M282.57,-46.5C293.87,-46.5 306.75,-46.5 319.68,-46.5"/>
<polygon fill="black" stroke="black" stroke-width="0.5" points="319.82,-48.25 324.82,-46.5 319.82,-44.75 319.82,-48.25"/>
</g>
<!-- PackageReferenceSymbol&#45;&gt;PackageReferenceSymbol -->
<g id="edge2" class="edge">
<title>PackageReferenceSymbol&#45;&gt;PackageReferenceSymbol</title>
<path fill="none" stroke="black" stroke-width="0.5" d="M373.38,-56.08C362.13,-64.73 369.84,-74 396.5,-74 419.41,-74 428.32,-67.16 423.24,-59.74"/>
<polygon fill="black" stroke="black" stroke-width="0.5" points="424.38,-58.41 419.62,-56.08 421.89,-60.87 424.38,-58.41"/>
</g>
<!-- SelectedName&#45;&gt;PackageReferenceSymbol -->
<g id="edge4" class="edge">
<title>SelectedName&#45;&gt;PackageReferenceSymbol</title>
<path fill="none" stroke="black" stroke-width="0.5" d="M284.5,-19.03C305.08,-24.12 330.51,-30.41 351.83,-35.69"/>
<polygon fill="black" stroke="black" stroke-width="0.5" points="351.6,-37.44 356.87,-36.94 352.44,-34.04 351.6,-37.44"/>
</g>
</g>
</svg>
