<?xml version="1.0" encoding="UTF-8" standalone="no"?>
<!DOCTYPE svg PUBLIC "-//W3C//DTD SVG 1.1//EN"
 "http://www.w3.org/Graphics/SVG/1.1/DTD/svg11.dtd">
<!-- Generated by graphviz version 2.43.0 (0)
 -->
<!-- Title: inheritancedd69a9697d Pages: 1 -->
<svg width="576pt" height="114pt"
 viewBox="0.00 0.00 576.00 114.21" xmlns="http://www.w3.org/2000/svg" xmlns:xlink="http://www.w3.org/1999/xlink">
<g id="graph0" class="graph" transform="scale(1.21 1.21) rotate(0) translate(4 134)">
<title>inheritancedd69a9697d</title>
<!-- BaseType -->
<g id="node1" class="node">
<title>BaseType</title>
<g id="a_node1"><a xlink:title="``BaseType`` is the base&#45;class of all type entities in this model.">
<polygon fill="white" stroke="#1e90ff" points="233,-56 170,-56 170,-37 233,-37 233,-56"/>
<text text-anchor="middle" x="201.5" y="-44" font-family="Vera Sans, DejaVu Sans, Liberation Sans, Arial, Helvetica, sans" font-size="10.00">BaseType</text>
</a>
</g>
</g>
<!-- FullType -->
<g id="node6" class="node">
<title>FullType</title>
<polygon fill="white" stroke="#1e90ff" points="325,-56 269,-56 269,-37 325,-37 325,-56"/>
<text text-anchor="middle" x="297" y="-44" font-family="Vera Sans, DejaVu Sans, Liberation Sans, Arial, Helvetica, sans" font-size="10.00">FullType</text>
</g>
<!-- BaseType&#45;&gt;FullType -->
<g id="edge4" class="edge">
<title>BaseType&#45;&gt;FullType</title>
<path fill="none" stroke="black" stroke-width="0.5" d="M233.12,-46.5C242.91,-46.5 253.79,-46.5 263.7,-46.5"/>
<polygon fill="black" stroke="black" stroke-width="0.5" points="263.78,-48.25 268.78,-46.5 263.78,-44.75 263.78,-48.25"/>
</g>
<!-- ModelEntity -->
<g id="node2" class="node">
<title>ModelEntity</title>
<g id="a_node2"><a xlink:title="``ModelEntity`` is the base&#45;class for all classes in the VHDL language model, except for mixin classes (see multiple">
<polygon fill="white" stroke="#1e90ff" points="104.5,-93 29.5,-93 29.5,-74 104.5,-74 104.5,-93"/>
<text text-anchor="middle" x="67" y="-81" font-family="Vera Sans, DejaVu Sans, Liberation Sans, Arial, Helvetica, sans" font-size="10.00">ModelEntity</text>
</a>
</g>
</g>
<!-- ModelEntity&#45;&gt;BaseType -->
<g id="edge1" class="edge">
<title>ModelEntity&#45;&gt;BaseType</title>
<path fill="none" stroke="black" stroke-width="0.5" d="M103.3,-73.96C113.24,-71.25 124.05,-68.28 134,-65.5 144.04,-62.7 154.91,-59.61 164.91,-56.76"/>
<polygon fill="black" stroke="black" stroke-width="0.5" points="165.41,-58.43 169.73,-55.37 164.44,-55.07 165.41,-58.43"/>
</g>
<!-- NamedEntityMixin -->
<g id="node3" class="node">
<title>NamedEntityMixin</title>
<g id="a_node3"><a xlink:title="A ``NamedEntityMixin`` is a mixin class for all VHDL entities that have identifiers.">
<polygon fill="white" stroke="#1e90ff" points="120.5,-56 13.5,-56 13.5,-37 120.5,-37 120.5,-56"/>
<text text-anchor="middle" x="67" y="-44" font-family="Vera Sans, DejaVu Sans, Liberation Sans, Arial, Helvetica, sans" font-size="10.00">NamedEntityMixin</text>
</a>
</g>
</g>
<!-- NamedEntityMixin&#45;&gt;BaseType -->
<g id="edge2" class="edge">
<title>NamedEntityMixin&#45;&gt;BaseType</title>
<path fill="none" stroke="black" stroke-width="0.5" d="M120.75,-46.5C135.4,-46.5 150.98,-46.5 164.44,-46.5"/>
<polygon fill="black" stroke="black" stroke-width="0.5" points="164.68,-48.25 169.68,-46.5 164.68,-44.75 164.68,-48.25"/>
</g>
<!-- DocumentedEntityMixin -->
<g id="node4" class="node">
<title>DocumentedEntityMixin</title>
<g id="a_node4"><a xlink:title="A ``DocumentedEntityMixin`` is a mixin class for all VHDL entities that can have an associated documentation.">
<polygon fill="white" stroke="#1e90ff" points="134,-19 0,-19 0,0 134,0 134,-19"/>
<text text-anchor="middle" x="67" y="-7" font-family="Vera Sans, DejaVu Sans, Liberation Sans, Arial, Helvetica, sans" font-size="10.00">DocumentedEntityMixin</text>
</a>
</g>
</g>
<!-- DocumentedEntityMixin&#45;&gt;BaseType -->
<g id="edge3" class="edge">
<title>DocumentedEntityMixin&#45;&gt;BaseType</title>
<path fill="none" stroke="black" stroke-width="0.5" d="M102.12,-19.03C121.35,-24.4 145.34,-31.1 164.82,-36.54"/>
<polygon fill="black" stroke="black" stroke-width="0.5" points="164.38,-38.23 169.66,-37.89 165.32,-34.86 164.38,-38.23"/>
</g>
<!-- DOMMixin -->
<g id="node5" class="node">
<title>DOMMixin</title>
<g id="a_node5"><a xlink:href="../pyGHDL.dom.html#pyGHDL.dom.DOMMixin" xlink:title="DOMMixin" target="_top">
<polygon fill="white" stroke="#1e90ff" points="553,-130 485,-130 485,-111 553,-111 553,-130"/>
<text text-anchor="middle" x="519" y="-118" font-family="Vera Sans, DejaVu Sans, Liberation Sans, Arial, Helvetica, sans" font-size="10.00">DOMMixin</text>
</a>
</g>
</g>
<!-- PhysicalType -->
<g id="node8" class="node">
<title>PhysicalType</title>
<g id="a_node8"><a xlink:href="../pyGHDL/pyGHDL.dom.Type.html#pyGHDL.dom.Type.PhysicalType" xlink:title="PhysicalType" target="_top">
<polygon fill="white" stroke="#1e90ff" points="688,-93 608,-93 608,-74 688,-74 688,-93"/>
<text text-anchor="middle" x="648" y="-81" font-family="Vera Sans, DejaVu Sans, Liberation Sans, Arial, Helvetica, sans" font-size="10.00">PhysicalType</text>
</a>
</g>
</g>
<!-- DOMMixin&#45;&gt;PhysicalType -->
<g id="edge6" class="edge">
<title>DOMMixin&#45;&gt;PhysicalType</title>
<path fill="none" stroke="black" stroke-width="0.5" d="M552.71,-110.97C569.9,-105.96 591.08,-99.79 609,-94.57"/>
<polygon fill="black" stroke="black" stroke-width="0.5" points="609.65,-96.2 613.96,-93.12 608.67,-92.84 609.65,-96.2"/>
</g>
<!-- ScalarType -->
<g id="node10" class="node">
<title>ScalarType</title>
<g id="a_node10"><a xlink:title="A ``ScalarType`` is a base&#45;class for all scalar types.">
<polygon fill="white" stroke="#1e90ff" points="430,-56 361,-56 361,-37 430,-37 430,-56"/>
<text text-anchor="middle" x="395.5" y="-44" font-family="Vera Sans, DejaVu Sans, Liberation Sans, Arial, Helvetica, sans" font-size="10.00">ScalarType</text>
</a>
</g>
</g>
<!-- FullType&#45;&gt;ScalarType -->
<g id="edge10" class="edge">
<title>FullType&#45;&gt;ScalarType</title>
<path fill="none" stroke="black" stroke-width="0.5" d="M325.14,-46.5C334.54,-46.5 345.27,-46.5 355.43,-46.5"/>
<polygon fill="black" stroke="black" stroke-width="0.5" points="355.69,-48.25 360.69,-46.5 355.69,-44.75 355.69,-48.25"/>
</g>
<!-- NumericType -->
<g id="node7" class="node">
<title>NumericType</title>
<g id="a_node7"><a xlink:title="A ``NumericType`` is a mixin class for all numeric types.">
<polygon fill="white" stroke="#1e90ff" points="559,-93 479,-93 479,-74 559,-74 559,-93"/>
<text text-anchor="middle" x="519" y="-81" font-family="Vera Sans, DejaVu Sans, Liberation Sans, Arial, Helvetica, sans" font-size="10.00">NumericType</text>
</a>
</g>
</g>
<!-- NumericType&#45;&gt;PhysicalType -->
<g id="edge8" class="edge">
<title>NumericType&#45;&gt;PhysicalType</title>
<path fill="none" stroke="black" stroke-width="0.5" d="M559.14,-83.5C572.9,-83.5 588.46,-83.5 602.62,-83.5"/>
<polygon fill="black" stroke="black" stroke-width="0.5" points="602.77,-85.25 607.77,-83.5 602.77,-81.75 602.77,-85.25"/>
</g>
<!-- PhysicalType&#45;&gt;PhysicalType -->
<g id="edge5" class="edge">
<title>PhysicalType&#45;&gt;PhysicalType</title>
<path fill="none" stroke="black" stroke-width="0.5" d="M628.27,-93.08C618.67,-101.73 625.25,-111 648,-111 667.2,-111 674.88,-104.4 671.04,-97.15"/>
<polygon fill="black" stroke="black" stroke-width="0.5" points="672.25,-95.85 667.73,-93.08 669.53,-98.06 672.25,-95.85"/>
</g>
<!-- RangedScalarType -->
<g id="node9" class="node">
<title>RangedScalarType</title>
<g id="a_node9"><a xlink:title="A ``RangedScalarType`` is a base&#45;class for all scalar types with a range.">
<polygon fill="white" stroke="#1e90ff" points="572,-56 466,-56 466,-37 572,-37 572,-56"/>
<text text-anchor="middle" x="519" y="-44" font-family="Vera Sans, DejaVu Sans, Liberation Sans, Arial, Helvetica, sans" font-size="10.00">RangedScalarType</text>
</a>
</g>
</g>
<!-- RangedScalarType&#45;&gt;PhysicalType -->
<g id="edge7" class="edge">
<title>RangedScalarType&#45;&gt;PhysicalType</title>
<path fill="none" stroke="black" stroke-width="0.5" d="M552.71,-56.03C569.9,-61.04 591.08,-67.21 609,-72.43"/>
<polygon fill="black" stroke="black" stroke-width="0.5" points="608.67,-74.16 613.96,-73.88 609.65,-70.8 608.67,-74.16"/>
</g>
<!-- ScalarType&#45;&gt;RangedScalarType -->
<g id="edge9" class="edge">
<title>ScalarType&#45;&gt;RangedScalarType</title>
<path fill="none" stroke="black" stroke-width="0.5" d="M430.02,-46.5C439.56,-46.5 450.23,-46.5 460.75,-46.5"/>
<polygon fill="black" stroke="black" stroke-width="0.5" points="460.9,-48.25 465.9,-46.5 460.9,-44.75 460.9,-48.25"/>
</g>
</g>
</svg>
