<?xml version="1.0" encoding="UTF-8" standalone="no"?>
<!DOCTYPE svg PUBLIC "-//W3C//DTD SVG 1.1//EN"
 "http://www.w3.org/Graphics/SVG/1.1/DTD/svg11.dtd">
<!-- Generated by graphviz version 2.43.0 (0)
 -->
<!-- Title: inheritance9f4d5fbf4c Pages: 1 -->
<svg width="481pt" height="64pt"
 viewBox="0.00 0.00 481.00 64.00" xmlns="http://www.w3.org/2000/svg" xmlns:xlink="http://www.w3.org/1999/xlink">
<g id="graph0" class="graph" transform="scale(1 1) rotate(0) translate(4 60)">
<title>inheritance9f4d5fbf4c</title>
<!-- Choice -->
<g id="node1" class="node">
<title>Choice</title>
<g id="a_node1"><a xlink:title="A ``Choice`` is a base&#45;class for all choices.">
<polygon fill="white" stroke="#1e90ff" points="165,-19 111,-19 111,0 165,0 165,-19"/>
<text text-anchor="middle" x="138" y="-7" font-family="Vera Sans, DejaVu Sans, Liberation Sans, Arial, Helvetica, sans" font-size="10.00">Choice</text>
</a>
</g>
</g>
<!-- ConcurrentChoice -->
<g id="node3" class="node">
<title>ConcurrentChoice</title>
<g id="a_node3"><a xlink:title="A ``ConcurrentChoice`` is a base&#45;class for all concurrent choices (in case...generate statements).">
<polygon fill="white" stroke="#1e90ff" points="304,-19 201,-19 201,0 304,0 304,-19"/>
<text text-anchor="middle" x="252.5" y="-7" font-family="Vera Sans, DejaVu Sans, Liberation Sans, Arial, Helvetica, sans" font-size="10.00">ConcurrentChoice</text>
</a>
</g>
</g>
<!-- Choice&#45;&gt;ConcurrentChoice -->
<g id="edge2" class="edge">
<title>Choice&#45;&gt;ConcurrentChoice</title>
<path fill="none" stroke="black" stroke-width="0.5" d="M165.09,-9.5C174.24,-9.5 184.9,-9.5 195.54,-9.5"/>
<polygon fill="black" stroke="black" stroke-width="0.5" points="195.76,-11.25 200.76,-9.5 195.76,-7.75 195.76,-11.25"/>
</g>
<!-- ModelEntity -->
<g id="node2" class="node">
<title>ModelEntity</title>
<g id="a_node2"><a xlink:title="``ModelEntity`` is the base&#45;class for all classes in the VHDL language model, except for mixin classes (see multiple">
<polygon fill="white" stroke="#1e90ff" points="75,-19 0,-19 0,0 75,0 75,-19"/>
<text text-anchor="middle" x="37.5" y="-7" font-family="Vera Sans, DejaVu Sans, Liberation Sans, Arial, Helvetica, sans" font-size="10.00">ModelEntity</text>
</a>
</g>
</g>
<!-- ModelEntity&#45;&gt;Choice -->
<g id="edge1" class="edge">
<title>ModelEntity&#45;&gt;Choice</title>
<path fill="none" stroke="black" stroke-width="0.5" d="M75.18,-9.5C85.15,-9.5 95.85,-9.5 105.51,-9.5"/>
<polygon fill="black" stroke="black" stroke-width="0.5" points="105.75,-11.25 110.75,-9.5 105.75,-7.75 105.75,-11.25"/>
</g>
<!-- IndexedGenerateChoice -->
<g id="node5" class="node">
<title>IndexedGenerateChoice</title>
<g id="a_node5"><a xlink:href="../pyGHDL/pyGHDL.dom.Concurrent.html#pyGHDL.dom.Concurrent.IndexedGenerateChoice" xlink:title="IndexedGenerateChoice" target="_top">
<polygon fill="white" stroke="#1e90ff" points="473,-37 340,-37 340,-18 473,-18 473,-37"/>
<text text-anchor="middle" x="406.5" y="-25" font-family="Vera Sans, DejaVu Sans, Liberation Sans, Arial, Helvetica, sans" font-size="10.00">IndexedGenerateChoice</text>
</a>
</g>
</g>
<!-- ConcurrentChoice&#45;&gt;IndexedGenerateChoice -->
<g id="edge5" class="edge">
<title>ConcurrentChoice&#45;&gt;IndexedGenerateChoice</title>
<path fill="none" stroke="black" stroke-width="0.5" d="M304.11,-15.49C313.98,-16.66 324.5,-17.91 334.88,-19.14"/>
<polygon fill="black" stroke="black" stroke-width="0.5" points="334.79,-20.89 339.96,-19.74 335.21,-17.41 334.79,-20.89"/>
</g>
<!-- DOMMixin -->
<g id="node4" class="node">
<title>DOMMixin</title>
<g id="a_node4"><a xlink:href="../pyGHDL.dom.html#pyGHDL.dom.DOMMixin" xlink:title="DOMMixin" target="_top">
<polygon fill="white" stroke="#1e90ff" points="286.5,-56 218.5,-56 218.5,-37 286.5,-37 286.5,-56"/>
<text text-anchor="middle" x="252.5" y="-44" font-family="Vera Sans, DejaVu Sans, Liberation Sans, Arial, Helvetica, sans" font-size="10.00">DOMMixin</text>
</a>
</g>
</g>
<!-- DOMMixin&#45;&gt;IndexedGenerateChoice -->
<g id="edge4" class="edge">
<title>DOMMixin&#45;&gt;IndexedGenerateChoice</title>
<path fill="none" stroke="black" stroke-width="0.5" d="M286.86,-42.33C300.95,-40.57 317.95,-38.44 334.61,-36.36"/>
<polygon fill="black" stroke="black" stroke-width="0.5" points="335.02,-38.07 339.76,-35.72 334.59,-34.6 335.02,-38.07"/>
</g>
<!-- IndexedGenerateChoice&#45;&gt;IndexedGenerateChoice -->
<g id="edge3" class="edge">
<title>IndexedGenerateChoice&#45;&gt;IndexedGenerateChoice</title>
<path fill="none" stroke="black" stroke-width="0.5" d="M382.76,-37.08C371.22,-45.73 379.13,-55 406.5,-55 430.02,-55 439.17,-48.16 433.95,-40.74"/>
<polygon fill="black" stroke="black" stroke-width="0.5" points="435.03,-39.34 430.24,-37.08 432.57,-41.84 435.03,-39.34"/>
</g>
</g>
</svg>
