<?xml version="1.0" encoding="UTF-8" standalone="no"?>
<!DOCTYPE svg PUBLIC "-//W3C//DTD SVG 1.1//EN"
 "http://www.w3.org/Graphics/SVG/1.1/DTD/svg11.dtd">
<!-- Generated by graphviz version 2.43.0 (0)
 -->
<!-- Title: inheritance1de42c24c8 Pages: 1 -->
<svg width="521pt" height="101pt"
 viewBox="0.00 0.00 521.00 101.00" xmlns="http://www.w3.org/2000/svg" xmlns:xlink="http://www.w3.org/1999/xlink">
<g id="graph0" class="graph" transform="scale(1 1) rotate(0) translate(4 97)">
<title>inheritance1de42c24c8</title>
<!-- AllName -->
<g id="node1" class="node">
<title>AllName</title>
<polygon fill="white" stroke="#1e90ff" points="268,-19 209,-19 209,0 268,0 268,-19"/>
<text text-anchor="middle" x="238.5" y="-7" font-family="Vera Sans, DejaVu Sans, Liberation Sans, Arial, Helvetica, sans" font-size="10.00">AllName</text>
</g>
<!-- AllPackageMembersReferenceSymbol -->
<g id="node3" class="node">
<title>AllPackageMembersReferenceSymbol</title>
<g id="a_node3"><a xlink:href="../pyGHDL/pyGHDL.dom.Symbol.html#pyGHDL.dom.Symbol.AllPackageMembersReferenceSymbol" xlink:title="A package reference in a use clause." target="_top">
<polygon fill="white" stroke="#1e90ff" points="513,-56 312,-56 312,-37 513,-37 513,-56"/>
<text text-anchor="middle" x="412.5" y="-44" font-family="Vera Sans, DejaVu Sans, Liberation Sans, Arial, Helvetica, sans" font-size="10.00">AllPackageMembersReferenceSymbol</text>
</a>
</g>
</g>
<!-- AllName&#45;&gt;AllPackageMembersReferenceSymbol -->
<g id="edge4" class="edge">
<title>AllName&#45;&gt;AllPackageMembersReferenceSymbol</title>
<path fill="none" stroke="black" stroke-width="0.5" d="M268.29,-15.69C293.78,-21.18 331.55,-29.3 361.9,-35.83"/>
<polygon fill="black" stroke="black" stroke-width="0.5" points="361.84,-37.61 367.09,-36.95 362.57,-34.18 361.84,-37.61"/>
</g>
<!-- Name -->
<g id="node2" class="node">
<title>Name</title>
<g id="a_node2"><a xlink:title="``Name`` is the base&#45;class for all *names* in the VHDL language model.">
<polygon fill="white" stroke="#1e90ff" points="165,-19 111,-19 111,0 165,0 165,-19"/>
<text text-anchor="middle" x="138" y="-7" font-family="Vera Sans, DejaVu Sans, Liberation Sans, Arial, Helvetica, sans" font-size="10.00">Name</text>
</a>
</g>
</g>
<!-- Name&#45;&gt;AllName -->
<g id="edge1" class="edge">
<title>Name&#45;&gt;AllName</title>
<path fill="none" stroke="black" stroke-width="0.5" d="M165.14,-9.5C176.91,-9.5 190.95,-9.5 203.53,-9.5"/>
<polygon fill="black" stroke="black" stroke-width="0.5" points="203.81,-11.25 208.81,-9.5 203.81,-7.75 203.81,-11.25"/>
</g>
<!-- AllPackageMembersReferenceSymbol&#45;&gt;AllPackageMembersReferenceSymbol -->
<g id="edge2" class="edge">
<title>AllPackageMembersReferenceSymbol&#45;&gt;AllPackageMembersReferenceSymbol</title>
<path fill="none" stroke="black" stroke-width="0.5" d="M385.68,-56.08C372.63,-64.73 381.57,-74 412.5,-74 439.56,-74 449.79,-66.91 443.18,-59.34"/>
<polygon fill="black" stroke="black" stroke-width="0.5" points="444.27,-57.97 439.32,-56.08 442.01,-60.64 444.27,-57.97"/>
</g>
<!-- DOMMixin -->
<g id="node4" class="node">
<title>DOMMixin</title>
<g id="a_node4"><a xlink:href="../pyGHDL.dom.html#pyGHDL.dom.DOMMixin" xlink:title="DOMMixin" target="_top">
<polygon fill="white" stroke="#1e90ff" points="272.5,-93 204.5,-93 204.5,-74 272.5,-74 272.5,-93"/>
<text text-anchor="middle" x="238.5" y="-81" font-family="Vera Sans, DejaVu Sans, Liberation Sans, Arial, Helvetica, sans" font-size="10.00">DOMMixin</text>
</a>
</g>
</g>
<!-- DOMMixin&#45;&gt;AllPackageMembersReferenceSymbol -->
<g id="edge3" class="edge">
<title>DOMMixin&#45;&gt;AllPackageMembersReferenceSymbol</title>
<path fill="none" stroke="black" stroke-width="0.5" d="M272.66,-76.37C298.04,-70.91 333.44,-63.29 362.14,-57.12"/>
<polygon fill="black" stroke="black" stroke-width="0.5" points="362.53,-58.82 367.05,-56.06 361.8,-55.4 362.53,-58.82"/>
</g>
<!-- NewSymbol -->
<g id="node5" class="node">
<title>NewSymbol</title>
<polygon fill="white" stroke="#1e90ff" points="276,-56 201,-56 201,-37 276,-37 276,-56"/>
<text text-anchor="middle" x="238.5" y="-44" font-family="Vera Sans, DejaVu Sans, Liberation Sans, Arial, Helvetica, sans" font-size="10.00">NewSymbol</text>
</g>
<!-- NewSymbol&#45;&gt;AllPackageMembersReferenceSymbol -->
<g id="edge5" class="edge">
<title>NewSymbol&#45;&gt;AllPackageMembersReferenceSymbol</title>
<path fill="none" stroke="black" stroke-width="0.5" d="M276.4,-46.5C285.56,-46.5 295.84,-46.5 306.53,-46.5"/>
<polygon fill="black" stroke="black" stroke-width="0.5" points="306.81,-48.25 311.81,-46.5 306.81,-44.75 306.81,-48.25"/>
</g>
<!-- ModelEntity -->
<g id="node6" class="node">
<title>ModelEntity</title>
<g id="a_node6"><a xlink:title="``ModelEntity`` is the base&#45;class for all classes in the VHDL language model, except for mixin classes (see multiple">
<polygon fill="white" stroke="#1e90ff" points="75,-19 0,-19 0,0 75,0 75,-19"/>
<text text-anchor="middle" x="37.5" y="-7" font-family="Vera Sans, DejaVu Sans, Liberation Sans, Arial, Helvetica, sans" font-size="10.00">ModelEntity</text>
</a>
</g>
</g>
<!-- ModelEntity&#45;&gt;Name -->
<g id="edge6" class="edge">
<title>ModelEntity&#45;&gt;Name</title>
<path fill="none" stroke="black" stroke-width="0.5" d="M75.18,-9.5C85.15,-9.5 95.85,-9.5 105.51,-9.5"/>
<polygon fill="black" stroke="black" stroke-width="0.5" points="105.75,-11.25 110.75,-9.5 105.75,-7.75 105.75,-11.25"/>
</g>
</g>
</svg>
