<?xml version="1.0" encoding="UTF-8" standalone="no"?>
<!DOCTYPE svg PUBLIC "-//W3C//DTD SVG 1.1//EN"
 "http://www.w3.org/Graphics/SVG/1.1/DTD/svg11.dtd">
<!-- Generated by graphviz version 2.43.0 (0)
 -->
<!-- Title: inheritanceb8bc770ac8 Pages: 1 -->
<svg width="545pt" height="156pt"
 viewBox="0.00 0.00 545.00 156.00" xmlns="http://www.w3.org/2000/svg" xmlns:xlink="http://www.w3.org/1999/xlink">
<g id="graph0" class="graph" transform="scale(1 1) rotate(0) translate(4 152)">
<title>inheritanceb8bc770ac8</title>
<!-- ConcurrentDeclarations -->
<g id="node1" class="node">
<title>ConcurrentDeclarations</title>
<polygon fill="white" stroke="#1e90ff" points="267,-148 136,-148 136,-129 267,-129 267,-148"/>
<text text-anchor="middle" x="201.5" y="-136" font-family="Vera Sans, DejaVu Sans, Liberation Sans, Arial, Helvetica, sans" font-size="10.00">ConcurrentDeclarations</text>
</g>
<!-- GenerateBranch -->
<g id="node3" class="node">
<title>GenerateBranch</title>
<g id="a_node3"><a xlink:title="A ``GenerateBranch`` is a base&#45;class for all branches in a generate statements.">
<polygon fill="white" stroke="#1e90ff" points="399,-101 304,-101 304,-82 399,-82 399,-101"/>
<text text-anchor="middle" x="351.5" y="-89" font-family="Vera Sans, DejaVu Sans, Liberation Sans, Arial, Helvetica, sans" font-size="10.00">GenerateBranch</text>
</a>
</g>
</g>
<!-- ConcurrentDeclarations&#45;&gt;GenerateBranch -->
<g id="edge2" class="edge">
<title>ConcurrentDeclarations&#45;&gt;GenerateBranch</title>
<path fill="none" stroke="black" stroke-width="0.5" d="M239.01,-128.95C248.49,-126.34 258.66,-123.42 268,-120.5 285.18,-115.13 304.15,-108.51 319.56,-102.95"/>
<polygon fill="black" stroke="black" stroke-width="0.5" points="320.54,-104.46 324.65,-101.11 319.35,-101.17 320.54,-104.46"/>
</g>
<!-- ConcurrentStatements -->
<g id="node2" class="node">
<title>ConcurrentStatements</title>
<polygon fill="white" stroke="#1e90ff" points="264.5,-111 138.5,-111 138.5,-92 264.5,-92 264.5,-111"/>
<text text-anchor="middle" x="201.5" y="-99" font-family="Vera Sans, DejaVu Sans, Liberation Sans, Arial, Helvetica, sans" font-size="10.00">ConcurrentStatements</text>
</g>
<!-- ConcurrentStatements&#45;&gt;GenerateBranch -->
<g id="edge3" class="edge">
<title>ConcurrentStatements&#45;&gt;GenerateBranch</title>
<path fill="none" stroke="black" stroke-width="0.5" d="M264.84,-97.29C276.21,-96.52 287.96,-95.73 298.97,-94.98"/>
<polygon fill="black" stroke="black" stroke-width="0.5" points="299.11,-96.73 303.98,-94.64 298.87,-93.23 299.11,-96.73"/>
</g>
<!-- IfGenerateBranch -->
<g id="node5" class="node">
<title>IfGenerateBranch</title>
<g id="a_node5"><a xlink:href="../pyGHDL/pyGHDL.dom.Concurrent.html#pyGHDL.dom.Concurrent.IfGenerateBranch" xlink:title="IfGenerateBranch" target="_top">
<polygon fill="white" stroke="#1e90ff" points="537,-73 435,-73 435,-54 537,-54 537,-73"/>
<text text-anchor="middle" x="486" y="-61" font-family="Vera Sans, DejaVu Sans, Liberation Sans, Arial, Helvetica, sans" font-size="10.00">IfGenerateBranch</text>
</a>
</g>
</g>
<!-- GenerateBranch&#45;&gt;IfGenerateBranch -->
<g id="edge5" class="edge">
<title>GenerateBranch&#45;&gt;IfGenerateBranch</title>
<path fill="none" stroke="black" stroke-width="0.5" d="M397.73,-81.94C409.67,-79.42 422.62,-76.68 434.81,-74.11"/>
<polygon fill="black" stroke="black" stroke-width="0.5" points="435.45,-75.76 439.98,-73.01 434.72,-72.34 435.45,-75.76"/>
</g>
<!-- ModelEntity -->
<g id="node4" class="node">
<title>ModelEntity</title>
<g id="a_node4"><a xlink:title="``ModelEntity`` is the base&#45;class for all classes in the VHDL language model, except for mixin classes (see multiple">
<polygon fill="white" stroke="#1e90ff" points="239,-74 164,-74 164,-55 239,-55 239,-74"/>
<text text-anchor="middle" x="201.5" y="-62" font-family="Vera Sans, DejaVu Sans, Liberation Sans, Arial, Helvetica, sans" font-size="10.00">ModelEntity</text>
</a>
</g>
</g>
<!-- ModelEntity&#45;&gt;GenerateBranch -->
<g id="edge1" class="edge">
<title>ModelEntity&#45;&gt;GenerateBranch</title>
<path fill="none" stroke="black" stroke-width="0.5" d="M239.08,-71.17C257.16,-74.47 279.27,-78.5 299.01,-82.11"/>
<polygon fill="black" stroke="black" stroke-width="0.5" points="298.75,-83.84 303.98,-83.01 299.37,-80.39 298.75,-83.84"/>
</g>
<!-- IfGenerateBranch&#45;&gt;IfGenerateBranch -->
<g id="edge4" class="edge">
<title>IfGenerateBranch&#45;&gt;IfGenerateBranch</title>
<path fill="none" stroke="black" stroke-width="0.5" d="M465.35,-73.08C455.3,-81.73 462.18,-91 486,-91 506.1,-91 514.14,-84.4 510.12,-77.15"/>
<polygon fill="black" stroke="black" stroke-width="0.5" points="511.23,-75.75 506.65,-73.08 508.57,-78.02 511.23,-75.75"/>
</g>
<!-- MixinIfBranch -->
<g id="node6" class="node">
<title>MixinIfBranch</title>
<g id="a_node6"><a xlink:title="A ``BaseIfBranch`` is a mixin&#45;class for all if&#45;branches.">
<polygon fill="white" stroke="#1e90ff" points="393.5,-55 309.5,-55 309.5,-36 393.5,-36 393.5,-55"/>
<text text-anchor="middle" x="351.5" y="-43" font-family="Vera Sans, DejaVu Sans, Liberation Sans, Arial, Helvetica, sans" font-size="10.00">MixinIfBranch</text>
</a>
</g>
</g>
<!-- MixinIfBranch&#45;&gt;IfGenerateBranch -->
<g id="edge6" class="edge">
<title>MixinIfBranch&#45;&gt;IfGenerateBranch</title>
<path fill="none" stroke="black" stroke-width="0.5" d="M393.7,-51.1C405.13,-52.65 417.73,-54.36 429.83,-56"/>
<polygon fill="black" stroke="black" stroke-width="0.5" points="429.78,-57.76 434.97,-56.7 430.25,-54.3 429.78,-57.76"/>
</g>
<!-- MixinBranch -->
<g id="node7" class="node">
<title>MixinBranch</title>
<g id="a_node7"><a xlink:title="A ``BaseBranch`` is a mixin&#45;class for all statements with branches.">
<polygon fill="white" stroke="#1e90ff" points="88,-56 11,-56 11,-37 88,-37 88,-56"/>
<text text-anchor="middle" x="49.5" y="-44" font-family="Vera Sans, DejaVu Sans, Liberation Sans, Arial, Helvetica, sans" font-size="10.00">MixinBranch</text>
</a>
</g>
</g>
<!-- MixinConditionalBranch -->
<g id="node9" class="node">
<title>MixinConditionalBranch</title>
<g id="a_node9"><a xlink:title="A ``BaseBranch`` is a mixin&#45;class for all branch statements with a condition.">
<polygon fill="white" stroke="#1e90ff" points="268,-37 135,-37 135,-18 268,-18 268,-37"/>
<text text-anchor="middle" x="201.5" y="-25" font-family="Vera Sans, DejaVu Sans, Liberation Sans, Arial, Helvetica, sans" font-size="10.00">MixinConditionalBranch</text>
</a>
</g>
</g>
<!-- MixinBranch&#45;&gt;MixinConditionalBranch -->
<g id="edge7" class="edge">
<title>MixinBranch&#45;&gt;MixinConditionalBranch</title>
<path fill="none" stroke="black" stroke-width="0.5" d="M88.35,-41.71C100.95,-40.11 115.42,-38.28 129.69,-36.47"/>
<polygon fill="black" stroke="black" stroke-width="0.5" points="130.19,-38.17 134.93,-35.81 129.75,-34.7 130.19,-38.17"/>
</g>
<!-- MixinConditional -->
<g id="node8" class="node">
<title>MixinConditional</title>
<g id="a_node8"><a xlink:title="A ``BaseConditional`` is a mixin&#45;class for all statements with a condition.">
<polygon fill="white" stroke="#1e90ff" points="99,-19 0,-19 0,0 99,0 99,-19"/>
<text text-anchor="middle" x="49.5" y="-7" font-family="Vera Sans, DejaVu Sans, Liberation Sans, Arial, Helvetica, sans" font-size="10.00">MixinConditional</text>
</a>
</g>
</g>
<!-- MixinConditional&#45;&gt;MixinConditionalBranch -->
<g id="edge8" class="edge">
<title>MixinConditional&#45;&gt;MixinConditionalBranch</title>
<path fill="none" stroke="black" stroke-width="0.5" d="M99.2,-15.34C108.98,-16.52 119.44,-17.77 129.79,-19.01"/>
<polygon fill="black" stroke="black" stroke-width="0.5" points="129.69,-20.76 134.86,-19.62 130.1,-17.29 129.69,-20.76"/>
</g>
<!-- MixinConditionalBranch&#45;&gt;MixinIfBranch -->
<g id="edge9" class="edge">
<title>MixinConditionalBranch&#45;&gt;MixinIfBranch</title>
<path fill="none" stroke="black" stroke-width="0.5" d="M268.28,-35.5C280.33,-36.97 292.67,-38.47 304.01,-39.85"/>
<polygon fill="black" stroke="black" stroke-width="0.5" points="303.97,-41.6 309.15,-40.47 304.4,-38.13 303.97,-41.6"/>
</g>
</g>
</svg>
