<?xml version="1.0" encoding="UTF-8" standalone="no"?>
<!DOCTYPE svg PUBLIC "-//W3C//DTD SVG 1.1//EN"
 "http://www.w3.org/Graphics/SVG/1.1/DTD/svg11.dtd">
<!-- Generated by graphviz version 2.43.0 (0)
 -->
<!-- Title: inheritance5d99679732 Pages: 1 -->
<svg width="576pt" height="136pt"
 viewBox="0.00 0.00 576.00 136.34" xmlns="http://www.w3.org/2000/svg" xmlns:xlink="http://www.w3.org/1999/xlink">
<g id="graph0" class="graph" transform="scale(1.01 1.01) rotate(0) translate(4 134)">
<title>inheritance5d99679732</title>
<!-- BaseType -->
<g id="node1" class="node">
<title>BaseType</title>
<g id="a_node1"><a xlink:title="``BaseType`` is the base&#45;class of all type entities in this model.">
<polygon fill="white" stroke="#1e90ff" points="233,-56 170,-56 170,-37 233,-37 233,-56"/>
<text text-anchor="middle" x="201.5" y="-44" font-family="Vera Sans, DejaVu Sans, Liberation Sans, Arial, Helvetica, sans" font-size="10.00">BaseType</text>
</a>
</g>
</g>
<!-- FullType -->
<g id="node9" class="node">
<title>FullType</title>
<polygon fill="white" stroke="#1e90ff" points="325,-56 269,-56 269,-37 325,-37 325,-56"/>
<text text-anchor="middle" x="297" y="-44" font-family="Vera Sans, DejaVu Sans, Liberation Sans, Arial, Helvetica, sans" font-size="10.00">FullType</text>
</g>
<!-- BaseType&#45;&gt;FullType -->
<g id="edge8" class="edge">
<title>BaseType&#45;&gt;FullType</title>
<path fill="none" stroke="black" stroke-width="0.5" d="M233.12,-46.5C242.91,-46.5 253.79,-46.5 263.7,-46.5"/>
<polygon fill="black" stroke="black" stroke-width="0.5" points="263.78,-48.25 268.78,-46.5 263.78,-44.75 263.78,-48.25"/>
</g>
<!-- ModelEntity -->
<g id="node2" class="node">
<title>ModelEntity</title>
<g id="a_node2"><a xlink:title="``ModelEntity`` is the base&#45;class for all classes in the VHDL language model, except for mixin classes (see multiple">
<polygon fill="white" stroke="#1e90ff" points="104.5,-93 29.5,-93 29.5,-74 104.5,-74 104.5,-93"/>
<text text-anchor="middle" x="67" y="-81" font-family="Vera Sans, DejaVu Sans, Liberation Sans, Arial, Helvetica, sans" font-size="10.00">ModelEntity</text>
</a>
</g>
</g>
<!-- ModelEntity&#45;&gt;BaseType -->
<g id="edge1" class="edge">
<title>ModelEntity&#45;&gt;BaseType</title>
<path fill="none" stroke="black" stroke-width="0.5" d="M103.3,-73.96C113.24,-71.25 124.05,-68.28 134,-65.5 144.04,-62.7 154.91,-59.61 164.91,-56.76"/>
<polygon fill="black" stroke="black" stroke-width="0.5" points="165.41,-58.43 169.73,-55.37 164.44,-55.07 165.41,-58.43"/>
</g>
<!-- NamedEntityMixin -->
<g id="node3" class="node">
<title>NamedEntityMixin</title>
<g id="a_node3"><a xlink:title="A ``NamedEntityMixin`` is a mixin class for all VHDL entities that have identifiers.">
<polygon fill="white" stroke="#1e90ff" points="120.5,-56 13.5,-56 13.5,-37 120.5,-37 120.5,-56"/>
<text text-anchor="middle" x="67" y="-44" font-family="Vera Sans, DejaVu Sans, Liberation Sans, Arial, Helvetica, sans" font-size="10.00">NamedEntityMixin</text>
</a>
</g>
</g>
<!-- NamedEntityMixin&#45;&gt;BaseType -->
<g id="edge2" class="edge">
<title>NamedEntityMixin&#45;&gt;BaseType</title>
<path fill="none" stroke="black" stroke-width="0.5" d="M120.75,-46.5C135.4,-46.5 150.98,-46.5 164.44,-46.5"/>
<polygon fill="black" stroke="black" stroke-width="0.5" points="164.68,-48.25 169.68,-46.5 164.68,-44.75 164.68,-48.25"/>
</g>
<!-- DocumentedEntityMixin -->
<g id="node4" class="node">
<title>DocumentedEntityMixin</title>
<g id="a_node4"><a xlink:title="A ``DocumentedEntityMixin`` is a mixin class for all VHDL entities that can have an associated documentation.">
<polygon fill="white" stroke="#1e90ff" points="134,-19 0,-19 0,0 134,0 134,-19"/>
<text text-anchor="middle" x="67" y="-7" font-family="Vera Sans, DejaVu Sans, Liberation Sans, Arial, Helvetica, sans" font-size="10.00">DocumentedEntityMixin</text>
</a>
</g>
</g>
<!-- DocumentedEntityMixin&#45;&gt;BaseType -->
<g id="edge3" class="edge">
<title>DocumentedEntityMixin&#45;&gt;BaseType</title>
<path fill="none" stroke="black" stroke-width="0.5" d="M102.12,-19.03C121.35,-24.4 145.34,-31.1 164.82,-36.54"/>
<polygon fill="black" stroke="black" stroke-width="0.5" points="164.38,-38.23 169.66,-37.89 165.32,-34.86 164.38,-38.23"/>
</g>
<!-- DOMMixin -->
<g id="node5" class="node">
<title>DOMMixin</title>
<g id="a_node5"><a xlink:href="../pyGHDL.dom.html#pyGHDL.dom.DOMMixin" xlink:title="DOMMixin" target="_top">
<polygon fill="white" stroke="#1e90ff" points="435,-130 367,-130 367,-111 435,-111 435,-130"/>
<text text-anchor="middle" x="401" y="-118" font-family="Vera Sans, DejaVu Sans, Liberation Sans, Arial, Helvetica, sans" font-size="10.00">DOMMixin</text>
</a>
</g>
</g>
<!-- EnumeratedType -->
<g id="node7" class="node">
<title>EnumeratedType</title>
<g id="a_node7"><a xlink:href="../pyGHDL/pyGHDL.dom.Type.html#pyGHDL.dom.Type.EnumeratedType" xlink:title="EnumeratedType" target="_top">
<polygon fill="white" stroke="#1e90ff" points="575,-93 477,-93 477,-74 575,-74 575,-93"/>
<text text-anchor="middle" x="526" y="-81" font-family="Vera Sans, DejaVu Sans, Liberation Sans, Arial, Helvetica, sans" font-size="10.00">EnumeratedType</text>
</a>
</g>
</g>
<!-- DOMMixin&#45;&gt;EnumeratedType -->
<g id="edge5" class="edge">
<title>DOMMixin&#45;&gt;EnumeratedType</title>
<path fill="none" stroke="black" stroke-width="0.5" d="M433.68,-110.97C450.33,-105.96 470.84,-99.79 488.2,-94.57"/>
<polygon fill="black" stroke="black" stroke-width="0.5" points="488.72,-96.24 493,-93.12 487.71,-92.89 488.72,-96.24"/>
</g>
<!-- DiscreteType -->
<g id="node6" class="node">
<title>DiscreteType</title>
<g id="a_node6"><a xlink:title="A ``DiscreteType`` is a mixin class for all discrete types.">
<polygon fill="white" stroke="#1e90ff" points="441,-93 361,-93 361,-74 441,-74 441,-93"/>
<text text-anchor="middle" x="401" y="-81" font-family="Vera Sans, DejaVu Sans, Liberation Sans, Arial, Helvetica, sans" font-size="10.00">DiscreteType</text>
</a>
</g>
</g>
<!-- DiscreteType&#45;&gt;EnumeratedType -->
<g id="edge7" class="edge">
<title>DiscreteType&#45;&gt;EnumeratedType</title>
<path fill="none" stroke="black" stroke-width="0.5" d="M441.26,-83.5C450.84,-83.5 461.25,-83.5 471.37,-83.5"/>
<polygon fill="black" stroke="black" stroke-width="0.5" points="471.63,-85.25 476.63,-83.5 471.63,-81.75 471.63,-85.25"/>
</g>
<!-- EnumeratedType&#45;&gt;EnumeratedType -->
<g id="edge4" class="edge">
<title>EnumeratedType&#45;&gt;EnumeratedType</title>
<path fill="none" stroke="black" stroke-width="0.5" d="M506.89,-93.08C497.59,-101.73 503.96,-111 526,-111 544.6,-111 552.04,-104.4 548.32,-97.15"/>
<polygon fill="black" stroke="black" stroke-width="0.5" points="549.59,-95.92 545.11,-93.08 546.84,-98.09 549.59,-95.92"/>
</g>
<!-- ScalarType -->
<g id="node8" class="node">
<title>ScalarType</title>
<g id="a_node8"><a xlink:title="A ``ScalarType`` is a base&#45;class for all scalar types.">
<polygon fill="white" stroke="#1e90ff" points="435.5,-56 366.5,-56 366.5,-37 435.5,-37 435.5,-56"/>
<text text-anchor="middle" x="401" y="-44" font-family="Vera Sans, DejaVu Sans, Liberation Sans, Arial, Helvetica, sans" font-size="10.00">ScalarType</text>
</a>
</g>
</g>
<!-- ScalarType&#45;&gt;EnumeratedType -->
<g id="edge6" class="edge">
<title>ScalarType&#45;&gt;EnumeratedType</title>
<path fill="none" stroke="black" stroke-width="0.5" d="M433.68,-56.03C450.33,-61.04 470.84,-67.21 488.2,-72.43"/>
<polygon fill="black" stroke="black" stroke-width="0.5" points="487.71,-74.11 493,-73.88 488.72,-70.76 487.71,-74.11"/>
</g>
<!-- FullType&#45;&gt;ScalarType -->
<g id="edge9" class="edge">
<title>FullType&#45;&gt;ScalarType</title>
<path fill="none" stroke="black" stroke-width="0.5" d="M325.07,-46.5C336.12,-46.5 349.11,-46.5 361.14,-46.5"/>
<polygon fill="black" stroke="black" stroke-width="0.5" points="361.23,-48.25 366.23,-46.5 361.23,-44.75 361.23,-48.25"/>
</g>
</g>
</svg>
