<?xml version="1.0" encoding="UTF-8" standalone="no"?>
<!DOCTYPE svg PUBLIC "-//W3C//DTD SVG 1.1//EN"
 "http://www.w3.org/Graphics/SVG/1.1/DTD/svg11.dtd">
<!-- Generated by graphviz version 2.43.0 (0)
 -->
<!-- Title: inheritance22eb519fbf Pages: 1 -->
<svg width="418pt" height="101pt"
 viewBox="0.00 0.00 418.00 101.00" xmlns="http://www.w3.org/2000/svg" xmlns:xlink="http://www.w3.org/1999/xlink">
<g id="graph0" class="graph" transform="scale(1 1) rotate(0) translate(4 97)">
<title>inheritance22eb519fbf</title>
<!-- DOMMixin -->
<g id="node1" class="node">
<title>DOMMixin</title>
<g id="a_node1"><a xlink:href="../pyGHDL.dom.html#pyGHDL.dom.DOMMixin" xlink:title="DOMMixin" target="_top">
<polygon fill="white" stroke="#1e90ff" points="275,-93 207,-93 207,-74 275,-74 275,-93"/>
<text text-anchor="middle" x="241" y="-81" font-family="Vera Sans, DejaVu Sans, Liberation Sans, Arial, Helvetica, sans" font-size="10.00">DOMMixin</text>
</a>
</g>
</g>
<!-- PackageSymbol -->
<g id="node5" class="node">
<title>PackageSymbol</title>
<g id="a_node5"><a xlink:href="../pyGHDL/pyGHDL.dom.Symbol.html#pyGHDL.dom.Symbol.PackageSymbol" xlink:title="A package reference in a package body declaration." target="_top">
<polygon fill="white" stroke="#1e90ff" points="410,-56 317,-56 317,-37 410,-37 410,-56"/>
<text text-anchor="middle" x="363.5" y="-44" font-family="Vera Sans, DejaVu Sans, Liberation Sans, Arial, Helvetica, sans" font-size="10.00">PackageSymbol</text>
</a>
</g>
</g>
<!-- DOMMixin&#45;&gt;PackageSymbol -->
<g id="edge3" class="edge">
<title>DOMMixin&#45;&gt;PackageSymbol</title>
<path fill="none" stroke="black" stroke-width="0.5" d="M273.03,-73.97C289.21,-69 309.1,-62.9 326.01,-57.7"/>
<polygon fill="black" stroke="black" stroke-width="0.5" points="326.89,-59.27 331.15,-56.12 325.86,-55.92 326.89,-59.27"/>
</g>
<!-- ModelEntity -->
<g id="node2" class="node">
<title>ModelEntity</title>
<g id="a_node2"><a xlink:title="``ModelEntity`` is the base&#45;class for all classes in the VHDL language model, except for mixin classes (see multiple">
<polygon fill="white" stroke="#1e90ff" points="75,-19 0,-19 0,0 75,0 75,-19"/>
<text text-anchor="middle" x="37.5" y="-7" font-family="Vera Sans, DejaVu Sans, Liberation Sans, Arial, Helvetica, sans" font-size="10.00">ModelEntity</text>
</a>
</g>
</g>
<!-- Name -->
<g id="node3" class="node">
<title>Name</title>
<g id="a_node3"><a xlink:title="``Name`` is the base&#45;class for all *names* in the VHDL language model.">
<polygon fill="white" stroke="#1e90ff" points="165,-19 111,-19 111,0 165,0 165,-19"/>
<text text-anchor="middle" x="138" y="-7" font-family="Vera Sans, DejaVu Sans, Liberation Sans, Arial, Helvetica, sans" font-size="10.00">Name</text>
</a>
</g>
</g>
<!-- ModelEntity&#45;&gt;Name -->
<g id="edge1" class="edge">
<title>ModelEntity&#45;&gt;Name</title>
<path fill="none" stroke="black" stroke-width="0.5" d="M75.18,-9.5C85.15,-9.5 95.85,-9.5 105.51,-9.5"/>
<polygon fill="black" stroke="black" stroke-width="0.5" points="105.75,-11.25 110.75,-9.5 105.75,-7.75 105.75,-11.25"/>
</g>
<!-- SimpleName -->
<g id="node6" class="node">
<title>SimpleName</title>
<polygon fill="white" stroke="#1e90ff" points="281,-19 201,-19 201,0 281,0 281,-19"/>
<text text-anchor="middle" x="241" y="-7" font-family="Vera Sans, DejaVu Sans, Liberation Sans, Arial, Helvetica, sans" font-size="10.00">SimpleName</text>
</g>
<!-- Name&#45;&gt;SimpleName -->
<g id="edge6" class="edge">
<title>Name&#45;&gt;SimpleName</title>
<path fill="none" stroke="black" stroke-width="0.5" d="M165.01,-9.5C174.35,-9.5 185.17,-9.5 195.63,-9.5"/>
<polygon fill="black" stroke="black" stroke-width="0.5" points="195.73,-11.25 200.73,-9.5 195.73,-7.75 195.73,-11.25"/>
</g>
<!-- NewSymbol -->
<g id="node4" class="node">
<title>NewSymbol</title>
<polygon fill="white" stroke="#1e90ff" points="278.5,-56 203.5,-56 203.5,-37 278.5,-37 278.5,-56"/>
<text text-anchor="middle" x="241" y="-44" font-family="Vera Sans, DejaVu Sans, Liberation Sans, Arial, Helvetica, sans" font-size="10.00">NewSymbol</text>
</g>
<!-- NewSymbol&#45;&gt;PackageSymbol -->
<g id="edge5" class="edge">
<title>NewSymbol&#45;&gt;PackageSymbol</title>
<path fill="none" stroke="black" stroke-width="0.5" d="M278.81,-46.5C289.25,-46.5 300.81,-46.5 311.92,-46.5"/>
<polygon fill="black" stroke="black" stroke-width="0.5" points="311.98,-48.25 316.98,-46.5 311.98,-44.75 311.98,-48.25"/>
</g>
<!-- PackageSymbol&#45;&gt;PackageSymbol -->
<g id="edge2" class="edge">
<title>PackageSymbol&#45;&gt;PackageSymbol</title>
<path fill="none" stroke="black" stroke-width="0.5" d="M344.7,-56.08C335.55,-64.73 341.82,-74 363.5,-74 381.8,-74 389.12,-67.4 385.46,-60.15"/>
<polygon fill="black" stroke="black" stroke-width="0.5" points="386.75,-58.96 382.3,-56.08 383.99,-61.1 386.75,-58.96"/>
</g>
<!-- SimpleName&#45;&gt;PackageSymbol -->
<g id="edge4" class="edge">
<title>SimpleName&#45;&gt;PackageSymbol</title>
<path fill="none" stroke="black" stroke-width="0.5" d="M273.03,-19.03C289.21,-24 309.1,-30.1 326.01,-35.3"/>
<polygon fill="black" stroke="black" stroke-width="0.5" points="325.86,-37.08 331.15,-36.88 326.89,-33.73 325.86,-37.08"/>
</g>
</g>
</svg>
