<?xml version="1.0" encoding="UTF-8" standalone="no"?>
<!DOCTYPE svg PUBLIC "-//W3C//DTD SVG 1.1//EN"
 "http://www.w3.org/Graphics/SVG/1.1/DTD/svg11.dtd">
<!-- Generated by graphviz version 2.43.0 (0)
 -->
<!-- Title: inheritance41b486d74d Pages: 1 -->
<svg width="425pt" height="138pt"
 viewBox="0.00 0.00 425.00 138.00" xmlns="http://www.w3.org/2000/svg" xmlns:xlink="http://www.w3.org/1999/xlink">
<g id="graph0" class="graph" transform="scale(1 1) rotate(0) translate(4 134)">
<title>inheritance41b486d74d</title>
<!-- ConcurrentDeclarations -->
<g id="node1" class="node">
<title>ConcurrentDeclarations</title>
<polygon fill="white" stroke="#1e90ff" points="131,-130 0,-130 0,-111 131,-111 131,-130"/>
<text text-anchor="middle" x="65.5" y="-118" font-family="Vera Sans, DejaVu Sans, Liberation Sans, Arial, Helvetica, sans" font-size="10.00">ConcurrentDeclarations</text>
</g>
<!-- GenerateBranch -->
<g id="node4" class="node">
<title>GenerateBranch</title>
<g id="a_node4"><a xlink:title="A ``GenerateBranch`` is a base&#45;class for all branches in a generate statements.">
<polygon fill="white" stroke="#1e90ff" points="263.5,-83 168.5,-83 168.5,-64 263.5,-64 263.5,-83"/>
<text text-anchor="middle" x="216" y="-71" font-family="Vera Sans, DejaVu Sans, Liberation Sans, Arial, Helvetica, sans" font-size="10.00">GenerateBranch</text>
</a>
</g>
</g>
<!-- ConcurrentDeclarations&#45;&gt;GenerateBranch -->
<g id="edge5" class="edge">
<title>ConcurrentDeclarations&#45;&gt;GenerateBranch</title>
<path fill="none" stroke="black" stroke-width="0.5" d="M102.1,-110.98C111.53,-108.34 121.68,-105.41 131,-102.5 148.62,-97.01 168.11,-90.31 183.88,-84.74"/>
<polygon fill="black" stroke="black" stroke-width="0.5" points="184.52,-86.37 188.65,-83.05 183.35,-83.07 184.52,-86.37"/>
</g>
<!-- ConcurrentStatements -->
<g id="node2" class="node">
<title>ConcurrentStatements</title>
<polygon fill="white" stroke="#1e90ff" points="128.5,-93 2.5,-93 2.5,-74 128.5,-74 128.5,-93"/>
<text text-anchor="middle" x="65.5" y="-81" font-family="Vera Sans, DejaVu Sans, Liberation Sans, Arial, Helvetica, sans" font-size="10.00">ConcurrentStatements</text>
</g>
<!-- ConcurrentStatements&#45;&gt;GenerateBranch -->
<g id="edge6" class="edge">
<title>ConcurrentStatements&#45;&gt;GenerateBranch</title>
<path fill="none" stroke="black" stroke-width="0.5" d="M128.62,-79.32C140.2,-78.54 152.18,-77.73 163.4,-76.97"/>
<polygon fill="black" stroke="black" stroke-width="0.5" points="163.63,-78.71 168.5,-76.63 163.39,-75.22 163.63,-78.71"/>
</g>
<!-- ElseGenerateBranch -->
<g id="node3" class="node">
<title>ElseGenerateBranch</title>
<g id="a_node3"><a xlink:href="../pyGHDL/pyGHDL.dom.Concurrent.html#pyGHDL.dom.Concurrent.ElseGenerateBranch" xlink:title="ElseGenerateBranch" target="_top">
<polygon fill="white" stroke="#1e90ff" points="417,-55 301,-55 301,-36 417,-36 417,-55"/>
<text text-anchor="middle" x="359" y="-43" font-family="Vera Sans, DejaVu Sans, Liberation Sans, Arial, Helvetica, sans" font-size="10.00">ElseGenerateBranch</text>
</a>
</g>
</g>
<!-- ElseGenerateBranch&#45;&gt;ElseGenerateBranch -->
<g id="edge1" class="edge">
<title>ElseGenerateBranch&#45;&gt;ElseGenerateBranch</title>
<path fill="none" stroke="black" stroke-width="0.5" d="M337.11,-55.08C326.47,-63.73 333.76,-73 359,-73 380.69,-73 389.13,-66.16 384.31,-58.74"/>
<polygon fill="black" stroke="black" stroke-width="0.5" points="385.58,-57.54 380.89,-55.08 383.03,-59.93 385.58,-57.54"/>
</g>
<!-- GenerateBranch&#45;&gt;ElseGenerateBranch -->
<g id="edge2" class="edge">
<title>GenerateBranch&#45;&gt;ElseGenerateBranch</title>
<path fill="none" stroke="black" stroke-width="0.5" d="M263.56,-64.25C276.85,-61.62 291.42,-58.72 305.06,-56.01"/>
<polygon fill="black" stroke="black" stroke-width="0.5" points="305.48,-57.71 310.04,-55.02 304.8,-54.28 305.48,-57.71"/>
</g>
<!-- MixinElseBranch -->
<g id="node5" class="node">
<title>MixinElseBranch</title>
<g id="a_node5"><a xlink:title="A ``BaseElseBranch`` is a mixin&#45;class for all else&#45;branches.">
<polygon fill="white" stroke="#1e90ff" points="265,-37 167,-37 167,-18 265,-18 265,-37"/>
<text text-anchor="middle" x="216" y="-25" font-family="Vera Sans, DejaVu Sans, Liberation Sans, Arial, Helvetica, sans" font-size="10.00">MixinElseBranch</text>
</a>
</g>
</g>
<!-- MixinElseBranch&#45;&gt;ElseGenerateBranch -->
<g id="edge3" class="edge">
<title>MixinElseBranch&#45;&gt;ElseGenerateBranch</title>
<path fill="none" stroke="black" stroke-width="0.5" d="M265.13,-33.64C275,-34.9 285.53,-36.25 295.81,-37.56"/>
<polygon fill="black" stroke="black" stroke-width="0.5" points="295.66,-39.31 300.84,-38.2 296.1,-35.83 295.66,-39.31"/>
</g>
<!-- ModelEntity -->
<g id="node6" class="node">
<title>ModelEntity</title>
<g id="a_node6"><a xlink:title="``ModelEntity`` is the base&#45;class for all classes in the VHDL language model, except for mixin classes (see multiple">
<polygon fill="white" stroke="#1e90ff" points="103,-56 28,-56 28,-37 103,-37 103,-56"/>
<text text-anchor="middle" x="65.5" y="-44" font-family="Vera Sans, DejaVu Sans, Liberation Sans, Arial, Helvetica, sans" font-size="10.00">ModelEntity</text>
</a>
</g>
</g>
<!-- ModelEntity&#45;&gt;GenerateBranch -->
<g id="edge4" class="edge">
<title>ModelEntity&#45;&gt;GenerateBranch</title>
<path fill="none" stroke="black" stroke-width="0.5" d="M103.21,-53.17C121.34,-56.47 143.53,-60.5 163.34,-64.11"/>
<polygon fill="black" stroke="black" stroke-width="0.5" points="163.09,-65.84 168.32,-65.01 163.71,-62.4 163.09,-65.84"/>
</g>
<!-- MixinBranch -->
<g id="node7" class="node">
<title>MixinBranch</title>
<g id="a_node7"><a xlink:title="A ``BaseBranch`` is a mixin&#45;class for all statements with branches.">
<polygon fill="white" stroke="#1e90ff" points="104,-19 27,-19 27,0 104,0 104,-19"/>
<text text-anchor="middle" x="65.5" y="-7" font-family="Vera Sans, DejaVu Sans, Liberation Sans, Arial, Helvetica, sans" font-size="10.00">MixinBranch</text>
</a>
</g>
</g>
<!-- MixinBranch&#45;&gt;MixinElseBranch -->
<g id="edge7" class="edge">
<title>MixinBranch&#45;&gt;MixinElseBranch</title>
<path fill="none" stroke="black" stroke-width="0.5" d="M104.36,-14.09C121.72,-16.19 142.6,-18.72 161.53,-21.02"/>
<polygon fill="black" stroke="black" stroke-width="0.5" points="161.63,-22.79 166.81,-21.66 162.05,-19.32 161.63,-22.79"/>
</g>
</g>
</svg>
